<svg xmlns="http://www.w3.org/2000/svg" width="22" height="20" viewBox="0 0 22 20">
  <g id="SVGRepo_iconCarrier" transform="translate(-1 -2)">
    <path id="Path_3" data-name="Path 3" d="M17,6V16.279l1.5,1.511L20,16.279V6Zm0-1h3V3.015H17Zm4,2v9.485a.5.5,0,0,1-.145.352l-2,2.015a.5.5,0,0,1-.71,0l-2-2.015A.5.5,0,0,1,16,16.485V14h-.5A1.5,1.5,0,0,1,14,12.5v-3A1.5,1.5,0,0,1,15.5,8H16V7H6v7.5a.5.5,0,0,1-.5.5H5a3,3,0,0,0,0,6H22V7Zm0-1h1.5a.5.5,0,0,1,.5.5v15a.5.5,0,0,1-.5.5H5a4,4,0,0,1-4-4V6.5A4.5,4.5,0,0,1,5.5,2a.5.5,0,0,1,.5.5V6H16V2.515a.5.5,0,0,1,.5-.5h4a.5.5,0,0,1,.5.5ZM16,9h-.5a.5.5,0,0,0-.5.5v3a.5.5,0,0,0,.5.5H16ZM2,15.354A3.99,3.99,0,0,1,5,14V3.035A3.5,3.5,0,0,0,2,6.5v8.854ZM8.5,8h3A1.5,1.5,0,0,1,13,9.5v3A1.5,1.5,0,0,1,11.5,14h-3A1.5,1.5,0,0,1,7,12.5v-3A1.5,1.5,0,0,1,8.5,8Zm0,1a.5.5,0,0,0-.5.5v3a.5.5,0,0,0,.5.5h3a.5.5,0,0,0,.5-.5v-3a.5.5,0,0,0-.5-.5Zm-1,8a.5.5,0,0,1,0-1h7a.5.5,0,0,1,0,1Zm0,2a.5.5,0,0,1,0-1h8a.5.5,0,0,1,0,1Z" fill="#ef0"/>
  </g>
</svg>
