<svg xmlns="http://www.w3.org/2000/svg" width="243.773" height="71.961" viewBox="0 0 243.773 71.961">
  <g id="Group_4376" data-name="Group 4376" transform="translate(-356.993 2707.005)">
    <g id="Group_4350" data-name="Group 4350" transform="translate(550.539 -2707.005)">
      <g id="Group_4343" data-name="Group 4343" transform="translate(0 0)">
        <g id="Group_4384" data-name="Group 4384">
          <rect id="Rectangle_161" data-name="Rectangle 161" width="50.227" height="50.226" fill="#2480c2"/>
        </g>
      </g>
      <g id="Group_4349" data-name="Group 4349" transform="translate(9.778 8.131)">
        <path id="Path_5839" data-name="Path 5839" d="M4042.858-2539.888a7.684,7.684,0,0,1-9.441,5.38,7.684,7.684,0,0,1-5.653-7.41v-3.208a7.683,7.683,0,0,1,7.681-7.686,7.684,7.684,0,0,1,7.034,4.586h8.063a15.406,15.406,0,0,0-18.2-11.978,15.405,15.405,0,0,0-12.3,15.079v3.208a15.406,15.406,0,0,0,15.454,15.358,15.406,15.406,0,0,0,15.217-13.327Z" transform="translate(-4020.047 2560.526)" fill="#fefeff"/>
      </g>
    </g>
    <g id="Group_4358" data-name="Group 4358" transform="translate(494.6 -2707.005)">
      <g id="Group_4352" data-name="Group 4352" transform="translate(0 0)">
        <g id="Group_4383" data-name="Group 4383">
          <rect id="Rectangle_163" data-name="Rectangle 163" width="50.227" height="50.226" fill="#2480c2"/>
        </g>
      </g>
      <path id="Path_5840" data-name="Path 5840" d="M3010.381-2550.211h-8.445l-12.365,32.82h8.847l1.939-5.951h11.618l1.939,5.951h8.847Zm-8.015,20.668,3.792-11.676,3.793,11.676Z" transform="translate(-2981.052 2558.914)" fill="#fefeff"/>
    </g>
    <g id="Group_4366" data-name="Group 4366" transform="translate(438.661 -2707.005)">
      <g id="Group_4360" data-name="Group 4360" transform="translate(0 0)">
        <g id="Group_4382" data-name="Group 4382">
          <rect id="Rectangle_165" data-name="Rectangle 165" width="50.227" height="50.226" fill="#2480c2"/>
        </g>
      </g>
      <path id="Path_5841" data-name="Path 5841" d="M1989.41-2550.211v32.82h-8.019v-24.7l-6.716,24.7H1967.9l-6.86-25.221v25.221h-8.017v-32.82H1965.5l5.79,20.793,5.791-20.793Z" transform="translate(-1946.105 2558.915)" fill="#fefeff"/>
    </g>
    <path id="Path_5842" data-name="Path 5842" d="M1801.522-1650.537v4.531a2.222,2.222,0,0,1-.178.886,2.289,2.289,0,0,1-.486.722,2.3,2.3,0,0,1-.719.486,2.194,2.194,0,0,1-.883.178h-3a3.029,3.029,0,0,1-1.218-.246,3.165,3.165,0,0,1-.989-.667,3.173,3.173,0,0,1-.667-.986,2.986,2.986,0,0,1-.246-1.208v-2.546h1.752v2.546a1.341,1.341,0,0,0,.106.53,1.355,1.355,0,0,0,.291.435,1.357,1.357,0,0,0,.435.291,1.361,1.361,0,0,0,.537.106h3a.5.5,0,0,0,.37-.154.514.514,0,0,0,.151-.373v-4.531Zm-6.125-1.547a.839.839,0,0,1,.072-.346.93.93,0,0,1,.192-.281.927.927,0,0,1,.281-.192.836.836,0,0,1,.346-.072.837.837,0,0,1,.346.072.929.929,0,0,1,.281.192.882.882,0,0,1,.188.281.875.875,0,0,1,.068.346.875.875,0,0,1-.068.346.881.881,0,0,1-.188.281.878.878,0,0,1-.281.188.874.874,0,0,1-.346.068.873.873,0,0,1-.346-.068.875.875,0,0,1-.281-.188.928.928,0,0,1-.192-.281A.838.838,0,0,1,1795.4-1652.083Zm2.108,0a.838.838,0,0,1,.072-.346.93.93,0,0,1,.192-.281.927.927,0,0,1,.281-.192.836.836,0,0,1,.346-.072.813.813,0,0,1,.342.072.942.942,0,0,1,.277.192.882.882,0,0,1,.188.281.875.875,0,0,1,.068.346.875.875,0,0,1-.068.346.881.881,0,0,1-.188.281.888.888,0,0,1-.277.188.848.848,0,0,1-.342.068.873.873,0,0,1-.346-.068.875.875,0,0,1-.281-.188.928.928,0,0,1-.192-.281A.838.838,0,0,1,1797.5-1652.083Zm7.2-.89v9.239h-1.745v-9.239Zm4.407,2.436v5.865c0,.009,0,.075-.007.2a2.4,2.4,0,0,1-.079.472,4.093,4.093,0,0,1-.236.657,3.4,3.4,0,0,1-.479.756,4.765,4.765,0,0,1-.807.763,5.622,5.622,0,0,1-1.218.684l-.677-1.615a4.951,4.951,0,0,0,.592-.3,3.307,3.307,0,0,0,.445-.315,2.378,2.378,0,0,0,.311-.315,2.652,2.652,0,0,0,.205-.291,1.437,1.437,0,0,0,.2-.643v-5.92Zm3.2-2.436V-1646a.5.5,0,0,0,.154.37.513.513,0,0,0,.373.151h.849v1.745h-.849a2.218,2.218,0,0,1-.886-.178,2.284,2.284,0,0,1-.722-.486,2.333,2.333,0,0,1-.489-.722,2.166,2.166,0,0,1-.181-.879v-6.974Zm.8,10.8a.875.875,0,0,1,.068-.346.881.881,0,0,1,.188-.281.877.877,0,0,1,.281-.188.872.872,0,0,1,.346-.068.873.873,0,0,1,.346.068.88.88,0,0,1,.281.188.928.928,0,0,1,.192.281.836.836,0,0,1,.072.346.836.836,0,0,1-.072.346.931.931,0,0,1-.192.281.882.882,0,0,1-.281.188.875.875,0,0,1-.346.068.874.874,0,0,1-.346-.068.879.879,0,0,1-.281-.188.884.884,0,0,1-.188-.281A.875.875,0,0,1,1813.114-1642.173Zm3.887-8.363v5.058h1.273v1.745h-5.133v-1.745h2.115v-5.058Zm-1.779,8.363a.873.873,0,0,1,.068-.346.875.875,0,0,1,.188-.281.877.877,0,0,1,.281-.188.873.873,0,0,1,.346-.068.873.873,0,0,1,.346.068.878.878,0,0,1,.281.188.879.879,0,0,1,.188.281.873.873,0,0,1,.068.346.873.873,0,0,1-.068.346.882.882,0,0,1-.188.281.88.88,0,0,1-.281.188.875.875,0,0,1-.346.068.875.875,0,0,1-.346-.068.879.879,0,0,1-.281-.188.878.878,0,0,1-.188-.281A.873.873,0,0,1,1815.222-1642.173Zm12.139-8.363v5.058h1.266v1.745H1817.7v-1.745H1820v-5.058h1.738v5.058h1.061v-5.058h1.745v5.058h1.068v-5.058Zm3.706-2.436v7.494h1.266v1.745h-4.277v-1.745h1.266v-7.494Zm3.817,0V-1646a2.2,2.2,0,0,1-.178.879,2.26,2.26,0,0,1-.489.722,2.326,2.326,0,0,1-.725.486,2.218,2.218,0,0,1-.886.178h-.849v-1.745h.849a.521.521,0,0,0,.38-.151.5.5,0,0,0,.154-.37v-6.974Zm11.127,7.494v1.745H1843v-3.675a1.343,1.343,0,0,0-.106-.53,1.4,1.4,0,0,0-.291-.438,1.391,1.391,0,0,0-.431-.3,1.285,1.285,0,0,0-.527-.109,1.285,1.285,0,0,0-.527.109,1.323,1.323,0,0,0-.428.3,1.439,1.439,0,0,0-.287.452,1.45,1.45,0,0,0-.106.554v1.382a.488.488,0,0,0,.147.359.5.5,0,0,0,.366.147h1.027v1.745h-1.027a2.177,2.177,0,0,1-.876-.178,2.324,2.324,0,0,1-.719-.482,2.256,2.256,0,0,1-.486-.715,2.179,2.179,0,0,1-.178-.876v-1.382a3.132,3.132,0,0,1,.243-1.232,3.177,3.177,0,0,1,.664-1,3.166,3.166,0,0,1,.986-.678,2.937,2.937,0,0,1,1.2-.25,2.927,2.927,0,0,1,1.2.253,3.207,3.207,0,0,1,.989.681,3.2,3.2,0,0,1,.664,1,2.934,2.934,0,0,1,.236,1.2v1.923Zm-6.31-6.6a.871.871,0,0,1,.068-.346.874.874,0,0,1,.188-.281.925.925,0,0,1,.281-.192.836.836,0,0,1,.346-.072.836.836,0,0,1,.346.072.928.928,0,0,1,.281.192.88.88,0,0,1,.188.281.873.873,0,0,1,.068.346.873.873,0,0,1-.068.346.879.879,0,0,1-.188.281.877.877,0,0,1-.281.188.873.873,0,0,1-.346.068.873.873,0,0,1-.346-.068.874.874,0,0,1-.281-.188.873.873,0,0,1-.188-.281A.871.871,0,0,1,1839.7-1652.083Zm2.1,0a.837.837,0,0,1,.072-.346.93.93,0,0,1,.192-.281.925.925,0,0,1,.281-.192.836.836,0,0,1,.346-.072.813.813,0,0,1,.342.072.943.943,0,0,1,.277.192.884.884,0,0,1,.188.281.875.875,0,0,1,.068.346.875.875,0,0,1-.068.346.883.883,0,0,1-.188.281.889.889,0,0,1-.277.188.848.848,0,0,1-.342.068.872.872,0,0,1-.346-.068.874.874,0,0,1-.281-.188.928.928,0,0,1-.192-.281A.836.836,0,0,1,1841.8-1652.083Zm3.634,9.91a.875.875,0,0,1,.068-.346.881.881,0,0,1,.188-.281.876.876,0,0,1,.281-.188.873.873,0,0,1,.346-.068.873.873,0,0,1,.346.068.879.879,0,0,1,.281.188.931.931,0,0,1,.192.281.838.838,0,0,1,.072.346.838.838,0,0,1-.072.346.934.934,0,0,1-.192.281.881.881,0,0,1-.281.188.875.875,0,0,1-.346.068.875.875,0,0,1-.346-.068.878.878,0,0,1-.281-.188.884.884,0,0,1-.188-.281A.875.875,0,0,1,1845.436-1642.173Zm3.887-8.363v5.058h1.273v1.745h-5.133v-1.745h2.115v-5.058Zm-1.779,8.363a.873.873,0,0,1,.068-.346.877.877,0,0,1,.188-.281.876.876,0,0,1,.281-.188.872.872,0,0,1,.346-.068.873.873,0,0,1,.346.068.88.88,0,0,1,.281.188.883.883,0,0,1,.188.281.875.875,0,0,1,.068.346.875.875,0,0,1-.068.346.886.886,0,0,1-.188.281.882.882,0,0,1-.281.188.875.875,0,0,1-.346.068.874.874,0,0,1-.346-.068.878.878,0,0,1-.281-.188.88.88,0,0,1-.188-.281A.873.873,0,0,1,1847.543-1642.173Zm2.475-3.306h1.273v-1.992a3.069,3.069,0,0,1,.24-1.218,3,3,0,0,1,.657-.972,3.062,3.062,0,0,1,.972-.643,3.047,3.047,0,0,1,1.191-.233,3.031,3.031,0,0,1,1.194.236,3.1,3.1,0,0,1,.975.647,3.019,3.019,0,0,1,.657.965,2.953,2.953,0,0,1,.24,1.184v1.485a2.4,2.4,0,0,1-.178.938,2.115,2.115,0,0,1-.489.722,2.227,2.227,0,0,1-.725.462,2.382,2.382,0,0,1-.886.164h-5.119Zm2.4-6.6a.837.837,0,0,1,.072-.346.925.925,0,0,1,.192-.281.926.926,0,0,1,.281-.192.836.836,0,0,1,.346-.072.837.837,0,0,1,.346.072.931.931,0,0,1,.281.192.884.884,0,0,1,.188.281.877.877,0,0,1,.068.346.877.877,0,0,1-.068.346.883.883,0,0,1-.188.281.879.879,0,0,1-.281.188.873.873,0,0,1-.346.068.873.873,0,0,1-.346-.068.875.875,0,0,1-.281-.188.924.924,0,0,1-.192-.281A.836.836,0,0,1,1852.421-1652.083Zm.609,6.6h2.108a.528.528,0,0,0,.38-.147.519.519,0,0,0,.154-.393v-1.485a1.171,1.171,0,0,0-.1-.5,1.261,1.261,0,0,0-.284-.411,1.334,1.334,0,0,0-.424-.274,1.355,1.355,0,0,0-.517-.1,1.288,1.288,0,0,0-.513.1,1.357,1.357,0,0,0-.421.281,1.291,1.291,0,0,0-.284.417,1.308,1.308,0,0,0-.1.52Zm1.5-6.6a.837.837,0,0,1,.072-.346.925.925,0,0,1,.192-.281.926.926,0,0,1,.281-.192.837.837,0,0,1,.346-.072.837.837,0,0,1,.346.072.93.93,0,0,1,.281.192.882.882,0,0,1,.188.281.875.875,0,0,1,.068.346.875.875,0,0,1-.068.346.881.881,0,0,1-.188.281.878.878,0,0,1-.281.188.873.873,0,0,1-.346.068.873.873,0,0,1-.346-.068.875.875,0,0,1-.281-.188.924.924,0,0,1-.192-.281A.836.836,0,0,1,1854.529-1652.083Zm6.076-.89v9.239h-1.745v-9.239Zm4.4,2.436v5.058h1.266v1.745h-1.4a3.4,3.4,0,0,1-.253.609,3.307,3.307,0,0,1-.483.674,4.656,4.656,0,0,1-.79.681,6.2,6.2,0,0,1-1.17.623l-.671-1.608a4.951,4.951,0,0,0,.592-.3,3.521,3.521,0,0,0,.441-.308,2.436,2.436,0,0,0,.308-.3,2.233,2.233,0,0,0,.205-.284,1.337,1.337,0,0,0,.2-.616v-5.975Zm9.424,6.8H1865.7v-1.745h2.265a5.291,5.291,0,0,1-.363-.575,5,5,0,0,1-.294-.65v.007a4.139,4.139,0,0,1-.181-.65,3.507,3.507,0,0,1-.065-.671,3.032,3.032,0,0,1,.154-.972,1.976,1.976,0,0,1,.513-.8,2.5,2.5,0,0,1,.941-.544,4.494,4.494,0,0,1,1.437-.2,4.516,4.516,0,0,1,1.451.2,2.5,2.5,0,0,1,.948.551,2,2,0,0,1,.513.811,3.089,3.089,0,0,1,.154.982,3.406,3.406,0,0,1-.062.643,4.906,4.906,0,0,1-.164.63,4.193,4.193,0,0,1-.284.661,5.306,5.306,0,0,1-.359.578h2.122Zm-5.468-3.525a2.868,2.868,0,0,0,.236.493,4.654,4.654,0,0,0,.3.442,4.624,4.624,0,0,0,.328.383q.168.174.311.3.144-.13.311-.308a4.31,4.31,0,0,0,.325-.39,4.757,4.757,0,0,0,.294-.448,2.783,2.783,0,0,0,.226-.5,2.17,2.17,0,0,0,.137-.712.709.709,0,0,0-.068-.308.641.641,0,0,0-.222-.25,1.285,1.285,0,0,0-.407-.171,2.546,2.546,0,0,0-.623-.065,2.6,2.6,0,0,0-.613.062,1.285,1.285,0,0,0-.4.164.6.6,0,0,0-.219.243.7.7,0,0,0-.065.3,2.041,2.041,0,0,0,.038.373A1.976,1.976,0,0,0,1868.961-1647.258Zm8.02-5.715V-1646a2.2,2.2,0,0,1-.178.879,2.262,2.262,0,0,1-.489.722,2.328,2.328,0,0,1-.725.486,2.219,2.219,0,0,1-.886.178h-.849v-1.745h.849a.522.522,0,0,0,.38-.151.5.5,0,0,0,.154-.37v-6.974Zm3.184,0v9.239h-1.745v-9.239Zm6.635,2.436v5.865c0,.009,0,.075-.007.2a2.409,2.409,0,0,1-.079.472,4.105,4.105,0,0,1-.236.657,3.4,3.4,0,0,1-.479.756,4.77,4.77,0,0,1-.807.763,5.628,5.628,0,0,1-1.218.684l-.678-1.615a4.942,4.942,0,0,0,.592-.3,3.291,3.291,0,0,0,.445-.315,2.37,2.37,0,0,0,.311-.315,2.655,2.655,0,0,0,.205-.291,1.439,1.439,0,0,0,.2-.643v-5.92Zm2.355,7.494h2.19a1.369,1.369,0,0,0,.7-.178,1.172,1.172,0,0,0,.472-.513H1890.5a2.177,2.177,0,0,1-.876-.178,2.281,2.281,0,0,1-.715-.482,2.284,2.284,0,0,1-.483-.715,2.179,2.179,0,0,1-.178-.876v-1.382a3.132,3.132,0,0,1,.243-1.232,3.216,3.216,0,0,1,.664-1.006,3.148,3.148,0,0,1,.982-.681,2.912,2.912,0,0,1,1.2-.25,2.886,2.886,0,0,1,1.208.257,3.231,3.231,0,0,1,.985.688,3.239,3.239,0,0,1,.664,1,3,3,0,0,1,.243,1.191v1.923h1.266v1.745h-1.328a3.006,3.006,0,0,1-.4.958,3.269,3.269,0,0,1-.684.773,3.187,3.187,0,0,1-.9.517,2.921,2.921,0,0,1-1.044.188h-2.19Zm3.531-2.436v-1.923a1.389,1.389,0,0,0-.1-.527,1.344,1.344,0,0,0-.287-.442,1.424,1.424,0,0,0-.435-.3,1.272,1.272,0,0,0-.53-.113,1.261,1.261,0,0,0-.524.109,1.333,1.333,0,0,0-.424.3,1.441,1.441,0,0,0-.287.452,1.452,1.452,0,0,0-.106.554v1.382a.488.488,0,0,0,.147.359.488.488,0,0,0,.359.147Zm5.461-5.058v.862a5.781,5.781,0,0,1,1.3-.626,4.305,4.305,0,0,1,1.379-.236,3.614,3.614,0,0,1,1.122.171,2.382,2.382,0,0,1,.924.551,2.659,2.659,0,0,1,.63.985,4.15,4.15,0,0,1,.233,1.482v1.868h1.266v1.745h-9.883v-1.745h1.273v-5.058Zm2.683,1.752a3.2,3.2,0,0,0-.927.144,3.765,3.765,0,0,0-.866.38,2.541,2.541,0,0,0-.64.534.94.94,0,0,0-.25.606v1.643h3.839v-1.868a2.117,2.117,0,0,0-.092-.671,1.2,1.2,0,0,0-.253-.445.942.942,0,0,0-.37-.246A1.292,1.292,0,0,0,1900.831-1648.785Zm7.459-1.752v5.058h1.273v1.745h-5.133v-1.745h2.115v-5.058Zm-2.231-1.547a.873.873,0,0,1,.068-.346.878.878,0,0,1,.188-.281.927.927,0,0,1,.281-.192.836.836,0,0,1,.346-.072.837.837,0,0,1,.346.072.929.929,0,0,1,.281.192.88.88,0,0,1,.188.281.875.875,0,0,1,.068.346.875.875,0,0,1-.068.346.879.879,0,0,1-.188.281.878.878,0,0,1-.281.188.873.873,0,0,1-.346.068.873.873,0,0,1-.346-.068.875.875,0,0,1-.281-.188.877.877,0,0,1-.188-.281A.873.873,0,0,1,1906.059-1652.083Zm2.926,6.6h1.307a2.5,2.5,0,0,1-.027-.26q-.007-.13-.007-.267v-1.4a3.084,3.084,0,0,1,.24-1.211,3.177,3.177,0,0,1,.657-1,3.108,3.108,0,0,1,.972-.674,2.9,2.9,0,0,1,1.191-.246,2.831,2.831,0,0,1,1.191.257,3.2,3.2,0,0,1,.979.688,3.233,3.233,0,0,1,.657,1,3.008,3.008,0,0,1,.24,1.187v1.41a2.625,2.625,0,0,1,0,.267,1.685,1.685,0,0,1-.034.253h1.3v1.745h-2.224a3.028,3.028,0,0,1-.951.636,2.937,2.937,0,0,1-1.157.226,2.824,2.824,0,0,1-2.108-.862h-2.224Zm4.332-3.306a1.222,1.222,0,0,0-.513.109,1.4,1.4,0,0,0-.421.294,1.343,1.343,0,0,0-.284.435,1.4,1.4,0,0,0-.1.537v1.4a1.426,1.426,0,0,0,.1.541,1.331,1.331,0,0,0,.284.438,1.4,1.4,0,0,0,.421.294,1.22,1.22,0,0,0,.513.109,1.221,1.221,0,0,0,.513-.109,1.341,1.341,0,0,0,.421-.3,1.434,1.434,0,0,0,.284-.438,1.358,1.358,0,0,0,.1-.527v-1.41a1.367,1.367,0,0,0-.1-.524,1.427,1.427,0,0,0-.284-.441,1.347,1.347,0,0,0-.421-.3A1.223,1.223,0,0,0,1913.317-1648.785Zm6.883-4.188V-1646a2.2,2.2,0,0,1-.178.879,2.258,2.258,0,0,1-.489.722,2.327,2.327,0,0,1-.725.486,2.218,2.218,0,0,1-.886.178h-.849v-1.745h.849a.522.522,0,0,0,.38-.151.5.5,0,0,0,.154-.37v-6.974Zm3.184,0v9.239h-1.745v-9.239Zm11.125,7.494v1.745H1931.5v-3.675a1.343,1.343,0,0,0-.106-.53,1.4,1.4,0,0,0-.291-.438,1.391,1.391,0,0,0-.431-.3,1.285,1.285,0,0,0-.527-.109,1.284,1.284,0,0,0-.527.109,1.324,1.324,0,0,0-.428.3,1.441,1.441,0,0,0-.287.452,1.452,1.452,0,0,0-.106.554v1.382a.488.488,0,0,0,.147.359.5.5,0,0,0,.366.147h1.027v1.745h-1.027a2.176,2.176,0,0,1-.876-.178,2.324,2.324,0,0,1-.719-.482,2.256,2.256,0,0,1-.486-.715,2.179,2.179,0,0,1-.178-.876v-1.382a3.132,3.132,0,0,1,.243-1.232,3.177,3.177,0,0,1,.664-1,3.167,3.167,0,0,1,.985-.678,2.938,2.938,0,0,1,1.2-.25,2.927,2.927,0,0,1,1.2.253,3.2,3.2,0,0,1,.989.681,3.2,3.2,0,0,1,.664,1,2.934,2.934,0,0,1,.236,1.2v1.923Zm-6.31-6.6a.873.873,0,0,1,.068-.346.88.88,0,0,1,.188-.281.925.925,0,0,1,.281-.192.836.836,0,0,1,.346-.072.836.836,0,0,1,.346.072.93.93,0,0,1,.281.192.882.882,0,0,1,.188.281.875.875,0,0,1,.068.346.875.875,0,0,1-.068.346.881.881,0,0,1-.188.281.878.878,0,0,1-.281.188.873.873,0,0,1-.346.068.872.872,0,0,1-.346-.068.874.874,0,0,1-.281-.188.879.879,0,0,1-.188-.281A.873.873,0,0,1,1928.2-1652.083Zm2.1,0a.839.839,0,0,1,.072-.346.925.925,0,0,1,.192-.281.926.926,0,0,1,.281-.192.837.837,0,0,1,.346-.072.813.813,0,0,1,.342.072.943.943,0,0,1,.277.192.882.882,0,0,1,.188.281.873.873,0,0,1,.068.346.873.873,0,0,1-.068.346.881.881,0,0,1-.188.281.889.889,0,0,1-.277.188.848.848,0,0,1-.342.068.873.873,0,0,1-.346-.068.875.875,0,0,1-.281-.188.924.924,0,0,1-.192-.281A.838.838,0,0,1,1930.3-1652.083Zm9.828.151-1.567,1.4a6.531,6.531,0,0,1,1.338.164,3.24,3.24,0,0,1,1.163.513,2.645,2.645,0,0,1,.821.972,3.353,3.353,0,0,1,.311,1.533v1.369a2.179,2.179,0,0,1-.178.876,2.228,2.228,0,0,1-.489.715,2.345,2.345,0,0,1-.729.482,2.242,2.242,0,0,1-.89.178h-5.975v-1.745h5.975a.54.54,0,0,0,.383-.147.473.473,0,0,0,.157-.359v-1.369a1.3,1.3,0,0,0-.175-.7,1.3,1.3,0,0,0-.462-.442,2.019,2.019,0,0,0-.647-.229,4.087,4.087,0,0,0-.729-.065,4.833,4.833,0,0,0-.753.062q-.39.062-.746.147t-.647.185q-.291.1-.455.175l-.773-1.41,3.805-3.525Zm6.466,1.4v5.058h1.266v1.745h-1.4a3.414,3.414,0,0,1-.253.609,3.307,3.307,0,0,1-.483.674,4.653,4.653,0,0,1-.791.681,6.19,6.19,0,0,1-1.17.623l-.671-1.608a4.951,4.951,0,0,0,.592-.3,3.521,3.521,0,0,0,.441-.308,2.436,2.436,0,0,0,.308-.3,2.245,2.245,0,0,0,.205-.284,1.334,1.334,0,0,0,.2-.616v-5.975Zm7.555,0v5.058h.513a.54.54,0,0,0,.383-.147.474.474,0,0,0,.157-.359v-4.551h1.752v4.551a2.145,2.145,0,0,1-.181.876,2.275,2.275,0,0,1-.493.715,2.345,2.345,0,0,1-.729.482,2.242,2.242,0,0,1-.89.178h-7.371v-1.745h2.313v-5.058h1.738v5.058h1.061v-5.058Zm-2.806-1.547a.873.873,0,0,1,.068-.346.878.878,0,0,1,.188-.281.928.928,0,0,1,.281-.192.837.837,0,0,1,.346-.072.837.837,0,0,1,.346.072.93.93,0,0,1,.281.192.882.882,0,0,1,.188.281.873.873,0,0,1,.068.346.873.873,0,0,1-.068.346.881.881,0,0,1-.188.281.878.878,0,0,1-.281.188.873.873,0,0,1-.346.068.873.873,0,0,1-.346-.068.877.877,0,0,1-.281-.188.877.877,0,0,1-.188-.281A.873.873,0,0,1,1951.343-1652.083Zm1.04-1.711a.837.837,0,0,1,.072-.346.928.928,0,0,1,.192-.281.929.929,0,0,1,.281-.192.838.838,0,0,1,.346-.072.815.815,0,0,1,.342.072.946.946,0,0,1,.277.192.881.881,0,0,1,.188.281.875.875,0,0,1,.068.346.874.874,0,0,1-.068.346.878.878,0,0,1-.188.281.887.887,0,0,1-.277.188.848.848,0,0,1-.342.068.873.873,0,0,1-.346-.068.874.874,0,0,1-.281-.188.925.925,0,0,1-.192-.281A.836.836,0,0,1,1952.383-1653.794Zm1.061,1.711a.839.839,0,0,1,.072-.346.927.927,0,0,1,.192-.281.925.925,0,0,1,.281-.192.836.836,0,0,1,.346-.072.813.813,0,0,1,.342.072.941.941,0,0,1,.277.192.88.88,0,0,1,.188.281.875.875,0,0,1,.068.346.875.875,0,0,1-.068.346.879.879,0,0,1-.188.281.887.887,0,0,1-.277.188.848.848,0,0,1-.342.068.872.872,0,0,1-.346-.068.874.874,0,0,1-.281-.188.926.926,0,0,1-.192-.281A.838.838,0,0,1,1953.444-1652.083Z" transform="translate(-1356.429 -993.91)" fill="#fff"/>
    <g id="Group_4375" data-name="Group 4375" transform="translate(356.993 -2707.003)">
      <g id="Group_4368" data-name="Group 4368" transform="translate(0 0)">
        <g id="Group_4381" data-name="Group 4381">
          <rect id="Rectangle_167" data-name="Rectangle 167" width="71.959" height="71.958" transform="translate(0 0)" fill="#2480c2"/>
        </g>
      </g>
      <g id="Group_4374" data-name="Group 4374" transform="translate(11.257 9.896)">
        <path id="Path_5843" data-name="Path 5843" d="M1150.155-2507.266v7.1a1.539,1.539,0,0,1-.327,1.008c-1.751,2.29-6.793,7.424-8.546,9.712a1.818,1.818,0,0,0-.408,1.2c.023,1.965,0,9.164.02,11.129,0,.44-.091.6-.569.6-2.864-.023-4.408-.018-7.273,0-.4,0-.539-.081-.539-.51.014-3.36-.011-9.035,0-12.4a6.488,6.488,0,0,1,1.862-4.517c1.16-1.257,4.271-4.722,5.42-5.985a1.334,1.334,0,0,0,.372-.982c-.016-3.193-.009-6.178-.009-9.373a1.372,1.372,0,0,1,1.158-1.557,2.036,2.036,0,0,1,2.284.785,1.472,1.472,0,0,1,.108.752v6.8c0,.388.009.752.435.914a2.921,2.921,0,0,0,2.056-.138.587.587,0,0,0,.2-.539v-10.955a1.078,1.078,0,0,0-.244-.65c-2.021-2.937-5.741-8.084-7.767-11.011-.718-1.045-.794-1.972.1-2.616.86-.618,1.815.419,2.5,1.328,2.216,2.926,5.8,7.682,8.016,10.607.21.276.415.562.6.855a3.339,3.339,0,0,1,.555,1.915c-.036,2.313-.011,4.2-.011,6.525" transform="translate(-1100.721 2528.682)" fill="#fefeff"/>
        <path id="Path_5844" data-name="Path 5844" d="M559.8-2513.791a3.339,3.339,0,0,1,.555-1.915c.185-.293.39-.578.6-.855,2.214-2.925,5.8-7.681,8.015-10.607.684-.909,1.639-1.946,2.5-1.328.9.645.821,1.571.1,2.617-2.026,2.926-5.745,8.074-7.767,11.01a1.077,1.077,0,0,0-.244.65v10.955a.587.587,0,0,0,.2.539,2.921,2.921,0,0,0,2.056.138c.426-.162.435-.526.435-.914v-6.8a1.473,1.473,0,0,1,.108-.752,2.036,2.036,0,0,1,2.284-.785,1.372,1.372,0,0,1,1.158,1.557c0,3.195.007,6.179-.009,9.373a1.334,1.334,0,0,0,.372.982c1.149,1.262,4.26,4.728,5.42,5.985a6.488,6.488,0,0,1,1.862,4.517c.011,3.36-.014,9.035,0,12.4,0,.429-.144.51-.539.51-2.865-.018-4.408-.023-7.273,0-.478,0-.569-.156-.569-.6.02-1.965,0-9.164.02-11.129a1.819,1.819,0,0,0-.408-1.2c-1.753-2.288-6.795-7.422-8.546-9.712a1.538,1.538,0,0,1-.327-1.008v-7.1c0-2.322.025-4.212-.011-6.525" transform="translate(-559.796 2528.682)" fill="#fefeff"/>
        <path id="Path_5845" data-name="Path 5845" d="M814.631-2378.95H810.1v-19.019h7.03l3.632,12.029,3.4-12.029h7.069v19.293h-4.491l-.039-13.591-4.1,13.474h-3.632l-4.1-13.942Z" transform="translate(-796.207 2405.225)" fill="#fefeff"/>
      </g>
    </g>
  </g>
</svg>
