<svg xmlns="http://www.w3.org/2000/svg" width="425.22" height="438.59" viewBox="0 0 425.22 438.59">
  <g id="SVGRepo_iconCarrier" transform="translate(-6.185 0.5)">
    <g id="Group_1" data-name="Group 1">
      <path id="Path_4" data-name="Path 4" d="M109.025,34.262h39.542a5.5,5.5,0,0,0,0-11H109.025a5.5,5.5,0,1,0,0,11Z" fill="#ef0" stroke="#ef0" stroke-width="1"/>
      <path id="Path_5" data-name="Path 5" d="M128.8,383.771A17.928,17.928,0,1,0,146.723,401.7,17.947,17.947,0,0,0,128.8,383.771Zm0,24.855a6.928,6.928,0,1,1,6.927-6.927A6.934,6.934,0,0,1,128.8,408.626Z" fill="#ef0" stroke="#ef0" stroke-width="1"/>
      <path id="Path_6" data-name="Path 6" d="M59.88,129.163h69.481a5.5,5.5,0,0,0,0-11H59.88a5.5,5.5,0,0,0,0,11Z" fill="#ef0" stroke="#ef0" stroke-width="1"/>
      <path id="Path_7" data-name="Path 7" d="M59.88,228.583h69.481a5.5,5.5,0,0,0,0-11H59.88a5.5,5.5,0,1,0,0,11Z" fill="#ef0" stroke="#ef0" stroke-width="1"/>
      <path id="Path_8" data-name="Path 8" d="M158.735,237.918H59.88a5.5,5.5,0,1,0,0,11h98.855a5.5,5.5,0,0,0,0-11Z" fill="#ef0" stroke="#ef0" stroke-width="1"/>
      <path id="Path_9" data-name="Path 9" d="M425.4,218.522a5.5,5.5,0,0,0,5.5-5.5V72.09a5.5,5.5,0,0,0-5.5-5.5H250.9V22.91A22.935,22.935,0,0,0,227.995,0H29.6A22.935,22.935,0,0,0,6.685,22.91V414.68a22.936,22.936,0,0,0,22.91,22.91h198.4a22.935,22.935,0,0,0,22.91-22.91V332.851H425.4a5.5,5.5,0,0,0,5.5-5.5V244.3a5.5,5.5,0,0,0-5.5-5.5H250.9V218.522H425.4Zm-5.5-11H179.349V77.59H419.9ZM173.849,238.8a5.5,5.5,0,0,0-5.5,5.5V274.21h-125V183.3h125v13.947H59.88a5.5,5.5,0,0,0,0,11H168.349v4.776a5.5,5.5,0,0,0,5.5,5.5h40.4V238.8h-40.4Zm0,94.051h40.4v9.269H43.345v-37.17h125v22.4A5.5,5.5,0,0,0,173.849,332.852Zm-5.5-235.025H59.88a5.5,5.5,0,0,0,0,11H168.349V153.1h-125V84.88h125ZM29.595,11h198.4A11.924,11.924,0,0,1,239.9,22.91V51.972H17.685V22.91A11.924,11.924,0,0,1,29.595,11Zm198.4,415.59H29.6a11.924,11.924,0,0,1-11.91-11.91v-38.1H239.9v38.1A11.924,11.924,0,0,1,227.995,426.59Zm11.91-61.007H17.685V62.972H239.9V66.59H173.849a5.5,5.5,0,0,0-5.5,5.5v1.79H37.845a5.5,5.5,0,0,0-5.5,5.5V158.6a5.5,5.5,0,0,0,5.5,5.5h130.5v8.2H37.845a5.5,5.5,0,0,0-5.5,5.5V279.71a5.5,5.5,0,0,0,5.5,5.5h130.5v8.74H37.845a5.5,5.5,0,0,0-5.5,5.5v48.17a5.5,5.5,0,0,0,5.5,5.5h181.9a5.5,5.5,0,0,0,5.5-5.5V332.851H239.9Zm180-43.731H179.349V249.8H419.9ZM239.9,238.8h-14.66V218.523H239.9Z" fill="#ef0" stroke="#ef0" stroke-width="1"/>
      <path id="Path_10" data-name="Path 10" d="M204.317,112.086h190.62a5.5,5.5,0,0,0,0-11H204.317a5.5,5.5,0,0,0,0,11Z" fill="#ef0" stroke="#ef0" stroke-width="1"/>
      <path id="Path_11" data-name="Path 11" d="M204.317,140.21h96.091a5.5,5.5,0,0,0,0-11H204.317a5.5,5.5,0,0,0,0,11Z" fill="#ef0" stroke="#ef0" stroke-width="1"/>
      <path id="Path_12" data-name="Path 12" d="M204.317,275.466h190.62a5.5,5.5,0,0,0,0-11H204.317a5.5,5.5,0,0,0,0,11Z" fill="#ef0" stroke="#ef0" stroke-width="1"/>
      <path id="Path_13" data-name="Path 13" d="M204.317,303.59h96.091a5.5,5.5,0,1,0,0-11H204.317a5.5,5.5,0,0,0,0,11Z" fill="#ef0" stroke="#ef0" stroke-width="1"/>
      <path id="Path_14" data-name="Path 14" d="M204.317,168.334H341.032a5.5,5.5,0,0,0,0-11H204.317a5.5,5.5,0,0,0,0,11Z" fill="#ef0" stroke="#ef0" stroke-width="1"/>
      <path id="Path_15" data-name="Path 15" d="M116.933,318.132H59.88a5.5,5.5,0,0,0,0,11h57.053a5.5,5.5,0,1,0,0-11Z" fill="#ef0" stroke="#ef0" stroke-width="1"/>
    </g>
  </g>
</svg>
