<svg xmlns="http://www.w3.org/2000/svg" xmlns:xlink="http://www.w3.org/1999/xlink" width="159.59" height="69.97" viewBox="0 0 159.59 69.97">
  <defs>
    <clipPath id="clip-path">
      <path id="Path_8449" data-name="Path 8449" d="M22.476,54.278a31.8,31.8,0,1,0,31.8-31.8,31.8,31.8,0,0,0-31.8,31.8" transform="translate(-22.476 -22.475)" fill="none"/>
    </clipPath>
  </defs>
  <g id="Group_16487" data-name="Group 16487" transform="translate(-27.916 -49.38)">
    <path id="Path_8368" data-name="Path 8368" d="M558.575,185.092a2.645,2.645,0,0,1-.314,1.31,2.8,2.8,0,0,1-.851.94,3.9,3.9,0,0,1-1.256.567,5.991,5.991,0,0,1-1.537.19,6.17,6.17,0,0,1-1.029-.081,6.464,6.464,0,0,1-.839-.194,3.9,3.9,0,0,1-.607-.238,1.768,1.768,0,0,1-.351-.22.527.527,0,0,1-.153-.274,2.229,2.229,0,0,1-.045-.516,3.65,3.65,0,0,1,.016-.38.99.99,0,0,1,.054-.249.275.275,0,0,1,.1-.135.261.261,0,0,1,.145-.04.739.739,0,0,1,.327.121,5.991,5.991,0,0,0,.541.267,5.291,5.291,0,0,0,.789.267,4.2,4.2,0,0,0,1.062.121,2.752,2.752,0,0,0,.711-.084,1.673,1.673,0,0,0,.533-.238,1.037,1.037,0,0,0,.335-.38,1.1,1.1,0,0,0,.116-.5.818.818,0,0,0-.2-.552,1.912,1.912,0,0,0-.517-.41,5.654,5.654,0,0,0-.723-.337q-.4-.157-.835-.333a7.95,7.95,0,0,1-.835-.4,3.321,3.321,0,0,1-.723-.534,2.49,2.49,0,0,1-.517-.735,2.385,2.385,0,0,1-.2-1.017,2.432,2.432,0,0,1,.285-1.2,2.531,2.531,0,0,1,.769-.856,3.455,3.455,0,0,1,1.141-.509,5.6,5.6,0,0,1,1.393-.168,5.7,5.7,0,0,1,.76.051,5.771,5.771,0,0,1,.711.139,4.3,4.3,0,0,1,.587.2,1.419,1.419,0,0,1,.339.183.555.555,0,0,1,.112.124.543.543,0,0,1,.049.135,1.284,1.284,0,0,1,.029.212q.008.128.008.318,0,.212-.012.359a1.186,1.186,0,0,1-.041.241.278.278,0,0,1-.083.139.222.222,0,0,1-.145.044.743.743,0,0,1-.289-.1q-.2-.1-.488-.223a5.03,5.03,0,0,0-.669-.22,3.319,3.319,0,0,0-.835-.1,2.23,2.23,0,0,0-.62.077,1.338,1.338,0,0,0-.442.212.851.851,0,0,0-.265.326.957.957,0,0,0-.087.4.819.819,0,0,0,.194.545,1.805,1.805,0,0,0,.521.41,5.875,5.875,0,0,0,.74.337q.413.157.843.333a8.731,8.731,0,0,1,.843.4,3.344,3.344,0,0,1,.736.534,2.476,2.476,0,0,1,.521.732,2.306,2.306,0,0,1,.2.991" transform="translate(-445.596 -103.677)" fill="#3b9d49"/>
    <path id="Path_8369" data-name="Path 8369" d="M618.509,187.967a2.338,2.338,0,0,1,.124.417.232.232,0,0,1-.066.23.584.584,0,0,1-.322.1q-.231.018-.636.018-.422,0-.657-.011a1.825,1.825,0,0,1-.36-.044.337.337,0,0,1-.174-.091.479.479,0,0,1-.083-.154l-.719-1.9H611.6l-.678,1.851a.559.559,0,0,1-.087.172.355.355,0,0,1-.174.11,1.423,1.423,0,0,1-.339.055q-.219.015-.575.015-.38,0-.595-.022a.485.485,0,0,1-.3-.106.261.261,0,0,1-.058-.238,2.165,2.165,0,0,1,.124-.41l3.3-8.4a.706.706,0,0,1,.116-.2.42.42,0,0,1,.211-.117,1.87,1.87,0,0,1,.4-.051q.256-.011.678-.011.488,0,.777.011a2.333,2.333,0,0,1,.451.051.443.443,0,0,1,.231.121.679.679,0,0,1,.12.22Zm-4.909-6.943h-.008l-1.512,4.024h3.033Z" transform="translate(-494.699 -104.431)" fill="#3b9d49"/>
    <path id="Path_8370" data-name="Path 8370" d="M696.144,188.7a.259.259,0,0,1-.033.135.266.266,0,0,1-.157.091,1.738,1.738,0,0,1-.364.051q-.24.015-.653.015-.347,0-.554-.015a1.371,1.371,0,0,1-.326-.055.357.357,0,0,1-.169-.1.542.542,0,0,1-.083-.15l-.959-2.114q-.173-.358-.339-.637a2.056,2.056,0,0,0-.368-.465,1.367,1.367,0,0,0-.467-.282,1.808,1.808,0,0,0-.612-.1h-.678v3.607a.19.19,0,0,1-.054.132.389.389,0,0,1-.178.095,1.932,1.932,0,0,1-.331.059,6.338,6.338,0,0,1-1.054,0,1.939,1.939,0,0,1-.335-.059.357.357,0,0,1-.174-.095.2.2,0,0,1-.05-.132v-8.6a.549.549,0,0,1,.186-.465.731.731,0,0,1,.459-.143h2.769q.422,0,.694.015t.5.037a4.975,4.975,0,0,1,1.161.278,2.832,2.832,0,0,1,.876.516,2.138,2.138,0,0,1,.55.754,2.472,2.472,0,0,1,.19,1,2.621,2.621,0,0,1-.136.867,2.142,2.142,0,0,1-.4.7,2.54,2.54,0,0,1-.653.534,3.75,3.75,0,0,1-.884.366,2.545,2.545,0,0,1,.45.249,2.251,2.251,0,0,1,.4.355,3.4,3.4,0,0,1,.351.475,5.865,5.865,0,0,1,.323.6l.9,1.866q.124.278.165.406a.709.709,0,0,1,.041.2m-2.8-6.424a1.286,1.286,0,0,0-.24-.79,1.323,1.323,0,0,0-.785-.454,3.408,3.408,0,0,0-.376-.059q-.211-.022-.583-.022h-.975v2.685h1.108a2.974,2.974,0,0,0,.81-.1,1.69,1.69,0,0,0,.578-.278,1.153,1.153,0,0,0,.347-.428,1.3,1.3,0,0,0,.116-.556" transform="translate(-562.875 -104.697)" fill="#3b9d49"/>
    <path id="Path_8371" data-name="Path 8371" d="M757.332,188.194a.784.784,0,0,1-.131.282.51.51,0,0,1-.251.161,1.813,1.813,0,0,1-.43.073q-.263.018-.668.018-.454,0-.728-.018a1.733,1.733,0,0,1-.434-.073.437.437,0,0,1-.231-.161.825.825,0,0,1-.111-.282l-1.647-6h-.016l-1.56,6a.829.829,0,0,1-.111.274.455.455,0,0,1-.227.165,1.525,1.525,0,0,1-.422.077q-.267.018-.7.018-.462,0-.736-.018a1.731,1.731,0,0,1-.434-.073.438.438,0,0,1-.231-.161.954.954,0,0,1-.119-.282l-2.339-8.26a2.115,2.115,0,0,1-.08-.413.26.26,0,0,1,.091-.23.6.6,0,0,1,.326-.1q.227-.018.633-.018.374,0,.593.011a1.213,1.213,0,0,1,.33.051.259.259,0,0,1,.151.117.765.765,0,0,1,.064.216l1.806,7.25h.008l1.878-7.2a.8.8,0,0,1,.083-.227.331.331,0,0,1,.175-.135,1.271,1.271,0,0,1,.338-.066q.215-.018.573-.018.382,0,.609.015a1.243,1.243,0,0,1,.35.062.355.355,0,0,1,.179.135.734.734,0,0,1,.087.234l1.942,7.2h.016l1.806-7.228a.884.884,0,0,1,.064-.2.277.277,0,0,1,.151-.132,1.087,1.087,0,0,1,.318-.066q.207-.018.581-.018.35,0,.545.018a.479.479,0,0,1,.282.1.276.276,0,0,1,.076.238,2.511,2.511,0,0,1-.083.428Z" transform="translate(-612.247 -104.431)" fill="#3b9d49"/>
    <path id="Path_8372" data-name="Path 8372" d="M853.626,187.967a2.332,2.332,0,0,1,.124.417.232.232,0,0,1-.066.23.585.585,0,0,1-.323.1q-.231.018-.636.018-.421,0-.657-.011a1.824,1.824,0,0,1-.36-.044.337.337,0,0,1-.174-.091.479.479,0,0,1-.083-.154l-.719-1.9h-4.017l-.678,1.851a.559.559,0,0,1-.087.172.355.355,0,0,1-.174.11,1.423,1.423,0,0,1-.339.055q-.219.015-.575.015-.38,0-.595-.022a.485.485,0,0,1-.3-.106.261.261,0,0,1-.058-.238,2.16,2.16,0,0,1,.124-.41l3.3-8.4a.706.706,0,0,1,.116-.2.42.42,0,0,1,.211-.117,1.87,1.87,0,0,1,.4-.051q.256-.011.678-.011.488,0,.777.011a2.334,2.334,0,0,1,.451.051.443.443,0,0,1,.231.121.678.678,0,0,1,.12.22Zm-4.909-6.943h-.008l-1.513,4.024h3.033Z" transform="translate(-696.535 -104.431)" fill="#3b9d49"/>
    <path id="Path_8373" data-name="Path 8373" d="M933.017,188.7a.259.259,0,0,1-.033.135.266.266,0,0,1-.157.091,1.741,1.741,0,0,1-.364.051q-.24.015-.653.015-.347,0-.554-.015a1.372,1.372,0,0,1-.327-.055.357.357,0,0,1-.169-.1.552.552,0,0,1-.083-.15l-.959-2.114q-.173-.358-.339-.637a2.054,2.054,0,0,0-.368-.465,1.366,1.366,0,0,0-.467-.282,1.809,1.809,0,0,0-.612-.1h-.678v3.607a.19.19,0,0,1-.054.132.388.388,0,0,1-.178.095,1.932,1.932,0,0,1-.331.059,6.338,6.338,0,0,1-1.054,0,1.942,1.942,0,0,1-.335-.059.357.357,0,0,1-.174-.095.2.2,0,0,1-.05-.132v-8.6a.549.549,0,0,1,.186-.465.731.731,0,0,1,.459-.143H928.5q.421,0,.694.015t.5.037a4.974,4.974,0,0,1,1.161.278,2.832,2.832,0,0,1,.876.516,2.134,2.134,0,0,1,.55.754,2.47,2.47,0,0,1,.19,1,2.616,2.616,0,0,1-.136.867,2.143,2.143,0,0,1-.4.7,2.545,2.545,0,0,1-.653.534,3.754,3.754,0,0,1-.884.366,2.55,2.55,0,0,1,.45.249,2.259,2.259,0,0,1,.4.355,3.4,3.4,0,0,1,.351.475,5.865,5.865,0,0,1,.323.6l.9,1.866q.124.278.165.406a.7.7,0,0,1,.041.2m-2.8-6.424a1.285,1.285,0,0,0-.24-.79,1.322,1.322,0,0,0-.785-.454,3.4,3.4,0,0,0-.376-.059q-.211-.022-.583-.022h-.975v2.685h1.107a2.976,2.976,0,0,0,.81-.1,1.69,1.69,0,0,0,.578-.278,1.157,1.157,0,0,0,.347-.428,1.3,1.3,0,0,0,.116-.556" transform="translate(-766.219 -104.697)" fill="#3b9d49"/>
    <path id="Path_8374" data-name="Path 8374" d="M997.794,187.967a2.338,2.338,0,0,1,.124.417.232.232,0,0,1-.066.23.584.584,0,0,1-.322.1q-.231.018-.636.018-.422,0-.657-.011a1.824,1.824,0,0,1-.36-.044.337.337,0,0,1-.174-.091.479.479,0,0,1-.083-.154l-.719-1.9h-4.017l-.678,1.851a.559.559,0,0,1-.087.172.355.355,0,0,1-.174.11,1.422,1.422,0,0,1-.339.055q-.219.015-.575.015-.38,0-.595-.022a.485.485,0,0,1-.3-.106.261.261,0,0,1-.058-.238,2.16,2.16,0,0,1,.124-.41l3.3-8.4a.7.7,0,0,1,.116-.2.42.42,0,0,1,.211-.117,1.87,1.87,0,0,1,.4-.051q.256-.011.678-.011.488,0,.777.011a2.333,2.333,0,0,1,.451.051.443.443,0,0,1,.231.121.68.68,0,0,1,.12.22Zm-4.909-6.943h-.008l-1.513,4.024H994.4Z" transform="translate(-820.295 -104.431)" fill="#3b9d49"/>
    <path id="Path_8375" data-name="Path 8375" d="M1076.132,188.1a.681.681,0,0,1-.064.3.636.636,0,0,1-.17.219.674.674,0,0,1-.254.128,1.124,1.124,0,0,1-.3.04h-.888a1.971,1.971,0,0,1-.479-.051.981.981,0,0,1-.373-.187,1.667,1.667,0,0,1-.329-.366,6.664,6.664,0,0,1-.356-.6l-2.552-4.426q-.222-.4-.452-.852t-.412-.889h-.016q.032.527.048,1.05t.016,1.079V188.5a.214.214,0,0,1-.044.132.326.326,0,0,1-.151.1,1.287,1.287,0,0,1-.289.062,4.062,4.062,0,0,1-.468.022,3.978,3.978,0,0,1-.46-.022,1.213,1.213,0,0,1-.285-.062.3.3,0,0,1-.143-.1.229.229,0,0,1-.04-.132v-8.509a.617.617,0,0,1,.218-.516.837.837,0,0,1,.535-.172h1.118a2.307,2.307,0,0,1,.507.048,1.094,1.094,0,0,1,.369.157,1.267,1.267,0,0,1,.3.3,3.828,3.828,0,0,1,.293.479l2,3.461q.174.315.345.618t.329.607q.159.3.309.6t.293.585h.008q-.024-.512-.036-1.068t-.012-1.061v-4.441a.2.2,0,0,1,.048-.132.383.383,0,0,1,.159-.1,1.128,1.128,0,0,1,.293-.062q.182-.018.468-.018.269,0,.452.018a.961.961,0,0,1,.281.062.319.319,0,0,1,.139.1.231.231,0,0,1,.04.132Z" transform="translate(-888.627 -104.52)" fill="#3b9d49"/>
    <path id="Path_8376" data-name="Path 8376" d="M552.42,272a2.376,2.376,0,0,1-.169.917,1.938,1.938,0,0,1-.484.7,2.171,2.171,0,0,1-.772.445,3.376,3.376,0,0,1-1.092.157h-.778v2.441a.118.118,0,0,1-.024.073.158.158,0,0,1-.074.05.733.733,0,0,1-.138.031,1.839,1.839,0,0,1-.439,0,.8.8,0,0,1-.14-.031.141.141,0,0,1-.074-.05.129.129,0,0,1-.021-.073V270.4a.361.361,0,0,1,.111-.3.387.387,0,0,1,.249-.089h1.466q.222,0,.426.018a4,4,0,0,1,.481.079,2,2,0,0,1,.566.225,1.789,1.789,0,0,1,.49.406,1.746,1.746,0,0,1,.309.558,2.152,2.152,0,0,1,.108.7m-.958.073a1.4,1.4,0,0,0-.156-.691,1.082,1.082,0,0,0-.386-.414,1.312,1.312,0,0,0-.476-.173,3.242,3.242,0,0,0-.479-.037h-.841v2.719h.82a1.92,1.92,0,0,0,.685-.1,1.288,1.288,0,0,0,.458-.29,1.219,1.219,0,0,0,.28-.445,1.623,1.623,0,0,0,.1-.563" transform="translate(-442.219 -182.409)" fill="#6d6d6d"/>
    <path id="Path_8377" data-name="Path 8377" d="M594.092,276.461a.129.129,0,0,1-.021.073.143.143,0,0,1-.074.05.809.809,0,0,1-.14.031,1.471,1.471,0,0,1-.214.013,1.505,1.505,0,0,1-.222-.013.805.805,0,0,1-.138-.031.142.142,0,0,1-.074-.05.128.128,0,0,1-.021-.073v-3.007h-3.116v3.007a.128.128,0,0,1-.021.073.142.142,0,0,1-.074.05.805.805,0,0,1-.14.031,1.817,1.817,0,0,1-.437,0,.8.8,0,0,1-.143-.031.142.142,0,0,1-.074-.05.128.128,0,0,1-.021-.073v-6.506a.129.129,0,0,1,.021-.073.141.141,0,0,1,.074-.05.8.8,0,0,1,.143-.031,1.817,1.817,0,0,1,.437,0,.8.8,0,0,1,.14.031.141.141,0,0,1,.074.05.129.129,0,0,1,.021.073v2.713h3.116v-2.713a.128.128,0,0,1,.021-.073.14.14,0,0,1,.074-.05.8.8,0,0,1,.138-.031,1.505,1.505,0,0,1,.222-.013,1.471,1.471,0,0,1,.214.013.808.808,0,0,1,.14.031.142.142,0,0,1,.074.05.129.129,0,0,1,.021.073Z" transform="translate(-477.37 -182.219)" fill="#6d6d6d"/>
    <path id="Path_8378" data-name="Path 8378" d="M638.578,276.278a.641.641,0,0,1,.045.186.127.127,0,0,1-.04.107.257.257,0,0,1-.14.047,2.6,2.6,0,0,1-.262.01q-.164,0-.262-.008a.6.6,0,0,1-.148-.026.156.156,0,0,1-.074-.05.4.4,0,0,1-.045-.079l-.587-1.65h-2.846l-.561,1.629a.272.272,0,0,1-.042.081.207.207,0,0,1-.077.058.477.477,0,0,1-.143.034,2.243,2.243,0,0,1-.241.01,1.953,1.953,0,0,1-.251-.013.252.252,0,0,1-.137-.05.131.131,0,0,1-.037-.107.637.637,0,0,1,.045-.186l2.3-6.3a.273.273,0,0,1,.056-.094.23.23,0,0,1,.1-.058.771.771,0,0,1,.169-.029q.1-.008.262-.008t.28.008a.843.843,0,0,1,.18.029.238.238,0,0,1,.106.06.282.282,0,0,1,.058.1Zm-2.947-5.558h-.005l-1.18,3.379h2.381Z" transform="translate(-514.771 -182.219)" fill="#6d6d6d"/>
    <path id="Path_8379" data-name="Path 8379" d="M686.346,276.652a.158.158,0,0,1-.016.073.123.123,0,0,1-.069.052.6.6,0,0,1-.148.031,2.449,2.449,0,0,1-.254.01,1.971,1.971,0,0,1-.225-.01.5.5,0,0,1-.14-.034.193.193,0,0,1-.082-.066.407.407,0,0,1-.05-.1l-.63-1.6q-.111-.272-.23-.5a1.606,1.606,0,0,0-.283-.393,1.163,1.163,0,0,0-.386-.257,1.4,1.4,0,0,0-.534-.092h-.608v2.886a.118.118,0,0,1-.024.073.159.159,0,0,1-.074.05.732.732,0,0,1-.138.031,1.839,1.839,0,0,1-.439,0,.8.8,0,0,1-.14-.031.142.142,0,0,1-.074-.05.128.128,0,0,1-.021-.073v-6.275a.335.335,0,0,1,.108-.286.378.378,0,0,1,.23-.081h1.455q.259,0,.431.013t.309.029a2.639,2.639,0,0,1,.7.215,1.663,1.663,0,0,1,.511.372,1.5,1.5,0,0,1,.309.516,1.907,1.907,0,0,1,.1.642,1.872,1.872,0,0,1-.093.61,1.472,1.472,0,0,1-.267.477,1.763,1.763,0,0,1-.418.359,2.693,2.693,0,0,1-.545.257,1.3,1.3,0,0,1,.307.186,1.584,1.584,0,0,1,.256.27,2.494,2.494,0,0,1,.225.362q.106.2.212.461l.614,1.493q.074.189.1.264a.479.479,0,0,1,.021.118m-1.37-4.762a1.2,1.2,0,0,0-.18-.673,1.017,1.017,0,0,0-.6-.4,1.74,1.74,0,0,0-.3-.052q-.167-.016-.437-.016h-.767v2.284h.889a1.993,1.993,0,0,0,.622-.086,1.229,1.229,0,0,0,.437-.241.937.937,0,0,0,.257-.364,1.241,1.241,0,0,0,.082-.456" transform="translate(-556.711 -182.409)" fill="#6d6d6d"/>
    <path id="Path_8380" data-name="Path 8380" d="M728.246,276.652a.132.132,0,0,1-.02.073.136.136,0,0,1-.071.05.756.756,0,0,1-.13.031,1.3,1.3,0,0,1-.206.013,1.32,1.32,0,0,1-.2-.013.684.684,0,0,1-.132-.031.137.137,0,0,1-.069-.05.132.132,0,0,1-.02-.073v-5.9h-.01l-2.252,5.93a.18.18,0,0,1-.042.063.216.216,0,0,1-.079.044.55.55,0,0,1-.124.026,1.546,1.546,0,0,1-.17.008,1.3,1.3,0,0,1-.178-.01.6.6,0,0,1-.123-.029.215.215,0,0,1-.076-.044.135.135,0,0,1-.037-.058l-2.153-5.93h0v5.9a.131.131,0,0,1-.02.073.136.136,0,0,1-.071.05.753.753,0,0,1-.132.031,1.353,1.353,0,0,1-.209.013,1.31,1.31,0,0,1-.2-.013.683.683,0,0,1-.13-.031.122.122,0,0,1-.066-.05.146.146,0,0,1-.018-.073v-6.233a.393.393,0,0,1,.11-.314.369.369,0,0,1,.246-.094h.521a1.117,1.117,0,0,1,.281.031.6.6,0,0,1,.211.1.569.569,0,0,1,.15.173,1.262,1.262,0,0,1,.105.246l1.827,4.908h.025l1.9-4.892a1.5,1.5,0,0,1,.12-.267.677.677,0,0,1,.143-.176.485.485,0,0,1,.173-.094.768.768,0,0,1,.221-.029h.547a.432.432,0,0,1,.143.024.288.288,0,0,1,.115.073.388.388,0,0,1,.078.126.508.508,0,0,1,.03.186Z" transform="translate(-590.58 -182.409)" fill="#6d6d6d"/>
    <path id="Path_8381" data-name="Path 8381" d="M784.1,276.278a.641.641,0,0,1,.045.186.127.127,0,0,1-.04.107.257.257,0,0,1-.14.047,2.6,2.6,0,0,1-.262.01q-.164,0-.262-.008a.6.6,0,0,1-.148-.026.156.156,0,0,1-.074-.05.4.4,0,0,1-.045-.079l-.587-1.65h-2.846l-.561,1.629a.274.274,0,0,1-.042.081.208.208,0,0,1-.077.058.477.477,0,0,1-.143.034,2.241,2.241,0,0,1-.241.01,1.953,1.953,0,0,1-.251-.013.252.252,0,0,1-.137-.05.131.131,0,0,1-.037-.107.639.639,0,0,1,.045-.186l2.3-6.3a.273.273,0,0,1,.056-.094.23.23,0,0,1,.1-.058.771.771,0,0,1,.169-.029q.1-.008.262-.008t.28.008a.845.845,0,0,1,.18.029.237.237,0,0,1,.106.06.281.281,0,0,1,.058.1Zm-2.947-5.558h-.005l-1.18,3.379h2.381Z" transform="translate(-639.404 -182.219)" fill="#6d6d6d"/>
    <path id="Path_8382" data-name="Path 8382" d="M829.232,275.321q0,.084-.005.147a.6.6,0,0,1-.018.11.364.364,0,0,1-.034.084.466.466,0,0,1-.074.089,1.528,1.528,0,0,1-.222.16,2.676,2.676,0,0,1-.421.21,3.518,3.518,0,0,1-.577.173,3.341,3.341,0,0,1-.711.071,3.148,3.148,0,0,1-1.2-.22,2.43,2.43,0,0,1-.915-.65,2.95,2.95,0,0,1-.582-1.061,5.269,5.269,0,0,1,.016-2.957,3.255,3.255,0,0,1,.616-1.118,2.632,2.632,0,0,1,.95-.7,3.032,3.032,0,0,1,1.225-.241,2.991,2.991,0,0,1,.577.055,3.711,3.711,0,0,1,.519.139,2.362,2.362,0,0,1,.423.194,1.435,1.435,0,0,1,.257.181.6.6,0,0,1,.092.107.352.352,0,0,1,.034.086.831.831,0,0,1,.021.118,1.411,1.411,0,0,1,.008.162,1.267,1.267,0,0,1-.011.178.5.5,0,0,1-.032.123.187.187,0,0,1-.051.073.111.111,0,0,1-.072.024.4.4,0,0,1-.207-.1,3.385,3.385,0,0,0-.343-.225,2.807,2.807,0,0,0-.511-.225,2.251,2.251,0,0,0-.721-.1,1.89,1.89,0,0,0-.832.181,1.753,1.753,0,0,0-.641.532,2.6,2.6,0,0,0-.412.857,4.655,4.655,0,0,0-.005,2.294,2.352,2.352,0,0,0,.4.828,1.687,1.687,0,0,0,.646.5,2.116,2.116,0,0,0,.867.17,2.316,2.316,0,0,0,.715-.1,2.8,2.8,0,0,0,.521-.223,4.041,4.041,0,0,0,.354-.223.426.426,0,0,1,.218-.1.123.123,0,0,1,.064.016.109.109,0,0,1,.042.06.533.533,0,0,1,.024.123c.005.052.008.119.008.2" transform="translate(-678.846 -181.901)" fill="#6d6d6d"/>
    <path id="Path_8383" data-name="Path 8383" d="M868.969,273.964v2.5a.13.13,0,0,1-.021.073.141.141,0,0,1-.074.05.784.784,0,0,1-.142.031,1.8,1.8,0,0,1-.434,0,.859.859,0,0,1-.142-.031.141.141,0,0,1-.076-.05.128.128,0,0,1-.021-.073v-2.5l-1.936-3.824a.821.821,0,0,1-.071-.189.106.106,0,0,1,.026-.1.253.253,0,0,1,.143-.047q.1-.01.278-.01a2.518,2.518,0,0,1,.256.01.83.83,0,0,1,.156.029.185.185,0,0,1,.087.052.434.434,0,0,1,.055.086l.947,1.949q.132.278.263.581t.268.613h.01q.121-.3.25-.595t.261-.584l.952-1.959a.265.265,0,0,1,.045-.089.175.175,0,0,1,.079-.055.64.64,0,0,1,.14-.029,2.035,2.035,0,0,1,.228-.01,2.62,2.62,0,0,1,.3.013.292.292,0,0,1,.151.05.1.1,0,0,1,.029.1.774.774,0,0,1-.071.183Z" transform="translate(-714.663 -182.22)" fill="#6d6d6d"/>
    <path id="Path_8384" data-name="Path 8384" d="M930.993,275.321q0,.084-.005.147a.579.579,0,0,1-.019.11.359.359,0,0,1-.035.084.467.467,0,0,1-.074.089,1.532,1.532,0,0,1-.223.16,2.686,2.686,0,0,1-.423.21,3.552,3.552,0,0,1-.579.173,3.375,3.375,0,0,1-.715.071,3.178,3.178,0,0,1-1.21-.22,2.442,2.442,0,0,1-.92-.65,2.948,2.948,0,0,1-.585-1.061,5.245,5.245,0,0,1,.016-2.957,3.254,3.254,0,0,1,.619-1.118,2.644,2.644,0,0,1,.954-.7,3.061,3.061,0,0,1,1.231-.241,3.019,3.019,0,0,1,.579.055,3.748,3.748,0,0,1,.521.139,2.384,2.384,0,0,1,.425.194,1.437,1.437,0,0,1,.258.181.607.607,0,0,1,.093.107.352.352,0,0,1,.035.086.848.848,0,0,1,.021.118,1.435,1.435,0,0,1,.008.162,1.244,1.244,0,0,1-.011.178.489.489,0,0,1-.032.123.185.185,0,0,1-.051.073.111.111,0,0,1-.072.024.4.4,0,0,1-.209-.1,3.406,3.406,0,0,0-.345-.225,2.831,2.831,0,0,0-.513-.225,2.272,2.272,0,0,0-.724-.1,1.907,1.907,0,0,0-.836.181,1.76,1.76,0,0,0-.644.532,2.6,2.6,0,0,0-.414.857,4.631,4.631,0,0,0-.005,2.294,2.348,2.348,0,0,0,.406.828,1.7,1.7,0,0,0,.649.5,2.136,2.136,0,0,0,.871.17,2.337,2.337,0,0,0,.719-.1,2.82,2.82,0,0,0,.524-.223,4.13,4.13,0,0,0,.355-.223.428.428,0,0,1,.219-.1.124.124,0,0,1,.064.016.11.11,0,0,1,.043.06.539.539,0,0,1,.024.123c.005.052.008.119.008.2" transform="translate(-766.053 -181.901)" fill="#6d6d6d"/>
    <path id="Path_8385" data-name="Path 8385" d="M976.576,276.461a.129.129,0,0,1-.021.073.144.144,0,0,1-.075.05.814.814,0,0,1-.141.031,1.487,1.487,0,0,1-.215.013,1.521,1.521,0,0,1-.223-.013.811.811,0,0,1-.138-.031.142.142,0,0,1-.074-.05.127.127,0,0,1-.021-.073v-3.007h-3.132v3.007a.128.128,0,0,1-.021.073.144.144,0,0,1-.074.05.812.812,0,0,1-.141.031,1.834,1.834,0,0,1-.438,0,.811.811,0,0,1-.144-.031.143.143,0,0,1-.074-.05.128.128,0,0,1-.021-.073v-6.506a.128.128,0,0,1,.021-.073.142.142,0,0,1,.074-.05.809.809,0,0,1,.144-.031,1.834,1.834,0,0,1,.438,0,.811.811,0,0,1,.141.031.143.143,0,0,1,.074.05.129.129,0,0,1,.021.073v2.713h3.132v-2.713a.127.127,0,0,1,.021-.073.141.141,0,0,1,.074-.05.81.81,0,0,1,.138-.031,1.521,1.521,0,0,1,.223-.013,1.487,1.487,0,0,1,.215.013.812.812,0,0,1,.141.031.143.143,0,0,1,.075.05.129.129,0,0,1,.021.073Z" transform="translate(-805.158 -182.219)" fill="#6d6d6d"/>
    <path id="Path_8386" data-name="Path 8386" d="M1020.425,276.278a.641.641,0,0,1,.045.186.127.127,0,0,1-.04.107.26.26,0,0,1-.141.047,2.628,2.628,0,0,1-.263.01q-.165,0-.263-.008a.6.6,0,0,1-.149-.026.156.156,0,0,1-.074-.05.4.4,0,0,1-.045-.079l-.59-1.65h-2.86l-.564,1.629a.273.273,0,0,1-.043.081.208.208,0,0,1-.077.058.483.483,0,0,1-.144.034,2.267,2.267,0,0,1-.242.01,1.972,1.972,0,0,1-.253-.013.255.255,0,0,1-.138-.05.132.132,0,0,1-.037-.107.644.644,0,0,1,.045-.186l2.308-6.3a.268.268,0,0,1,.056-.094.231.231,0,0,1,.1-.058.777.777,0,0,1,.17-.029c.069-.005.157-.008.263-.008s.207,0,.282.008a.855.855,0,0,1,.181.029.241.241,0,0,1,.106.06.28.28,0,0,1,.058.1Zm-2.962-5.558h-.005l-1.186,3.379h2.393Z" transform="translate(-841.867 -182.219)" fill="#6d6d6d"/>
    <path id="Path_8387" data-name="Path 8387" d="M1064.792,276.461a.128.128,0,0,1-.021.073.144.144,0,0,1-.074.05.814.814,0,0,1-.141.031,1.531,1.531,0,0,1-.221.013,1.547,1.547,0,0,1-.218-.013.808.808,0,0,1-.143-.031.143.143,0,0,1-.075-.05.128.128,0,0,1-.021-.073v-6.506a.118.118,0,0,1,.024-.073.159.159,0,0,1,.08-.05.89.89,0,0,1,.143-.031,1.442,1.442,0,0,1,.21-.013,1.531,1.531,0,0,1,.221.013.812.812,0,0,1,.141.031.143.143,0,0,1,.074.05.129.129,0,0,1,.021.073Z" transform="translate(-884.215 -182.219)" fill="#6d6d6d"/>
    <path id="Path_8388" data-name="Path 8388" d="M1087.747,276.322a.4.4,0,0,1-.036.178.35.35,0,0,1-.093.12.361.361,0,0,1-.129.068.5.5,0,0,1-.143.021h-.3a.975.975,0,0,1-.25-.029.563.563,0,0,1-.2-.1,1.063,1.063,0,0,1-.192-.207,2.685,2.685,0,0,1-.2-.335l-2.1-3.855q-.165-.3-.332-.626t-.311-.636h-.011q.011.377.016.77t.005.78v4.091a.127.127,0,0,1-.022.071.141.141,0,0,1-.076.052.812.812,0,0,1-.14.031,1.875,1.875,0,0,1-.443,0,.74.74,0,0,1-.137-.031.14.14,0,0,1-.073-.052.126.126,0,0,1-.022-.071V270.3a.347.347,0,0,1,.121-.3.435.435,0,0,1,.263-.089h.45a1.145,1.145,0,0,1,.266.026.557.557,0,0,1,.192.086.748.748,0,0,1,.165.168,2.275,2.275,0,0,1,.167.27l1.614,2.975q.149.272.288.532t.267.511q.128.251.254.5t.249.49h.005q-.011-.414-.013-.862t0-.862v-3.677a.115.115,0,0,1,.022-.068.181.181,0,0,1,.076-.055.5.5,0,0,1,.141-.034,1.987,1.987,0,0,1,.227-.01,1.886,1.886,0,0,1,.213.01.47.47,0,0,1,.14.034.182.182,0,0,1,.073.055.115.115,0,0,1,.023.068Z" transform="translate(-900.241 -182.315)" fill="#6d6d6d"/>
    <path id="Path_8389" data-name="Path 8389" d="M69.97,34.984A34.985,34.985,0,1,1,34.985,0,34.985,34.985,0,0,1,69.97,34.984" transform="translate(27.916 49.381)" fill="#3b9d49"/>
    <path id="Path_8390" data-name="Path 8390" d="M86.083,54.278a31.8,31.8,0,1,1-31.8-31.8,31.8,31.8,0,0,1,31.8,31.8" transform="translate(8.621 30.086)" fill="#fff"/>
    <g id="Group_8053" data-name="Group 8053" transform="translate(31.097 52.561)" clip-path="url(#clip-path)">
      <path id="Path_8391" data-name="Path 8391" d="M344.094,375.086h-9.369c-.092-.11-.021-.2.04-.288a12.367,12.367,0,0,1,2.508-2.742c.22-.174.474-.3.7-.453a7.1,7.1,0,0,0-.762.491,8.064,8.064,0,0,0-.8.678c-.115.112-.24.24-.421.172s-.15-.238-.171-.38c-.412-2.711-.824-5.422-1.285-8.126-.248-1.458-.5-2.915-.788-4.366-.033-.165-.128-.361.067-.478.178-.107.337.027.48.118a11.317,11.317,0,0,1,2.316,1.993,54.022,54.022,0,0,1,6.523,9.436c.3.524.648,1.023.926,1.561a2.394,2.394,0,0,1,.031,2.385" transform="translate(-289.644 -311.839)" fill="#fefefe"/>
      <path id="Path_8392" data-name="Path 8392" d="M244.128,386.611H239.2a1.652,1.652,0,0,1,.028-1.1c.185-1.1.45-2.184.614-3.283.206-1.383.518-2.746.711-4.131a.888.888,0,0,0-.142-.608c-.418-.706-.921-1.356-1.341-2.061-.261-.439-.252-.532.083-.919s.674-.766.986-1.17a.771.771,0,0,1,.323-.293c.753-.1,1.512-.007,2.266-.067a7.817,7.817,0,0,1,1.345,1.621.708.708,0,0,1-.093.848,3.741,3.741,0,0,0-.558,1.109c-.1.355-.378.615-.506.958a1.48,1.48,0,0,0-.1.745c.225,1.636.6,3.246.88,4.87.183,1.042.327,2.092.5,3.138a.383.383,0,0,1-.069.342" transform="translate(-208.254 -323.365)" fill="#b80103"/>
      <path id="Path_8393" data-name="Path 8393" d="M298.612,369.886h-6.38c-.122-.309.088-.543.2-.786.463-1,1.018-1.954,1.513-2.939a12.1,12.1,0,0,0,.938-2.312c.141-.531.194-.549.6-.186a1.68,1.68,0,0,0,1.983.274,1.762,1.762,0,0,0,1.023-1.7,1.671,1.671,0,0,0-.77-1.393.922.922,0,0,1-.436-.878,15.223,15.223,0,0,0-.194-3.409,4.783,4.783,0,0,0-.974-2.139.594.594,0,0,1-.154-.28,1.1,1.1,0,0,1,1.063-.643,1.129,1.129,0,0,1,.815.992q1.117,6.035,2.011,12.106c.06.413.141.822.186,1.237a.564.564,0,0,1-.05.43,11.922,11.922,0,0,1-1.378,1.623" transform="translate(-254.015 -306.64)" fill="#fefefe"/>
      <path id="Path_8394" data-name="Path 8394" d="M83.109,367.956q.36-2.454.716-4.909c.016-.109.1-.26-.023-.328-.064-.034-.2.042-.292.087a29.537,29.537,0,0,1-5.051,2.01c-3.551.963-5.919-.521-7.393-3.467a17.463,17.463,0,0,1-1.389-4.45,1.007,1.007,0,0,1,.131-.655,4.28,4.28,0,0,1,.8-1.108c.215.026.206.213.236.354.088.416.207.825.29,1.242.053.264.186.442.493.394a4.383,4.383,0,0,0,3.589-2.72,2.67,2.67,0,0,0,.173-1.694c-.052-.2-.114-.429.119-.584.162-.155.207.029.268.105a14.121,14.121,0,0,1,2.063,3.306c.1.227.157.312.423.17,2.369-1.268,4.74-2.534,7.191-3.64a.537.537,0,0,0,.257-.183,1.723,1.723,0,0,1,.792-.6c.363-.1.474-.013.467.349a.642.642,0,0,1-.234.154.972.972,0,0,0-.6.793c-.384,2.17-.777,4.337-1.126,6.513q-.68,4.238-1.284,8.487a.643.643,0,0,1-.127.375Z" transform="translate(-62.983 -304.71)" fill="#4c4c4c"/>
      <path id="Path_8395" data-name="Path 8395" d="M168.076,369.806a23.471,23.471,0,0,1,.337-2.634c.508-3.485,1.051-6.964,1.67-10.431.144-.807.314-1.611.421-2.422.078-.589.518-.727.951-.905a.931.931,0,0,1,.979.582,4.514,4.514,0,0,1-.4,1.006,9.99,9.99,0,0,0-.873,3.935c-.146.9-.229,1.8-.3,2.71a1.1,1.1,0,0,1-.35.816,1.922,1.922,0,0,0-.632,1.47c0,.429.016.859,0,1.288-.012.389.237.7.265,1.085a15.4,15.4,0,0,0,.545,3.118.379.379,0,0,1-.036.382Z" transform="translate(-147.466 -306.559)" fill="#fefefe"/>
      <path id="Path_8396" data-name="Path 8396" d="M228.631,401.916h-.969a2.35,2.35,0,0,1-.1-1.34,44.181,44.181,0,0,0,0-4.507c-.043-.924-.076-1.85-.12-2.774a.83.83,0,0,1,.045-.511,10.255,10.255,0,0,1,.869-1.763c.085-.141.188-.273.388-.182.521.683.912,1.451,1.409,2.15a.854.854,0,0,1,.084.624c-.2,1.49-.538,2.955-.785,4.436-.176,1.058-.378,2.111-.566,3.166-.044.246-.037.516-.257.7" transform="translate(-198.409 -338.67)" fill="#3b9e49"/>
      <path id="Path_8397" data-name="Path 8397" d="M272.041,401.908h-.969a2.431,2.431,0,0,1-.236-.928c-.425-2.461-.87-4.919-1.293-7.38a1.112,1.112,0,0,1,.119-.776c.3-.525.526-1.089.838-1.608a1.174,1.174,0,0,1,.285-.386c.177-.084.29.026.368.149a6.817,6.817,0,0,1,1.082,2.478c-.016.871-.056,1.742-.1,2.611a46.709,46.709,0,0,0,0,4.743,1.72,1.72,0,0,1-.1,1.1" transform="translate(-234.551 -338.661)" fill="#3b9e49"/>
      <path id="Path_8398" data-name="Path 8398" d="M327.732,368.608a8.249,8.249,0,0,1,1.114-1.421.706.706,0,0,0,.2-.641c-.654-4.435-1.372-8.859-2.187-13.268a1.129,1.129,0,0,0-.746-.984c.051-.3.113-.331.473-.242a19.83,19.83,0,0,1,6.306,6.1c1.766,2.443,3.262,5.053,4.8,7.64a2.959,2.959,0,0,1,.382,2.578.788.788,0,0,0-.006.236h-.485c.47-1.268-.062-2.3-.706-3.356-1.406-2.308-2.75-4.655-4.345-6.843a24.627,24.627,0,0,0-3.939-4.468,5.423,5.423,0,0,0-1.093-.752c-.049-.024-.121-.128-.2-.016-.045.063-.029.109-.015.179.858,4.245,1.5,8.525,2.143,12.806.013.09.029.18.053.334a12.475,12.475,0,0,1,1.232-.963c.08-.017.11.015.092.094a14.773,14.773,0,0,0-2.539,2.84.561.561,0,0,0-.052.145Z" transform="translate(-283.135 -305.361)" fill="#4c4c4c"/>
      <path id="Path_8399" data-name="Path 8399" d="M286.768,373.362c.007-1.1-.087-2.2-.091-3.3,0-1.37.084-2.736.108-4.1.007-.383.056-.773.081-1.16a.614.614,0,0,0,.335-.255c.058-.1.139-.116.2.012-.017.577-.011,1.156-.051,1.73-.088,1.288-.123,2.579-.129,3.868,0,.79.084,1.583.056,2.4.484-1.292,1.231-2.428,1.8-3.651a8.616,8.616,0,0,0,.757-2.292,3.156,3.156,0,0,0-.538-2.454c-.187-.257-.46-.523-.3-.868.175-.376.569-.287.9-.3.282-.009.566.006.848-.005a1.01,1.01,0,0,0,1.037-.888,2.845,2.845,0,0,0-.007-1.044,12.339,12.339,0,0,0-.912-2.753,1.472,1.472,0,0,1-.137-.379c.085-.4.173-.448.535-.306a5.006,5.006,0,0,1,1.322,3.129,22.122,22.122,0,0,1,.071,2.942.4.4,0,0,0,.213.425,1.915,1.915,0,0,1-.3,3.491,1.852,1.852,0,0,1-2.058-.54c-.035-.037-.074-.071-.15-.143-.495,2.218-1.835,4.014-2.7,6.027-.058.135-.106.274-.159.412Z" transform="translate(-249.278 -310.115)" fill="#4a4c4c"/>
      <path id="Path_8400" data-name="Path 8400" d="M194.691,363.927a4.018,4.018,0,0,1,.141,1.336c.081,1.752.144,3.507.1,5.262-.019.708-.112,1.414-.076,2.125h-.727a1.3,1.3,0,0,1-.246-.412c-.527-1.114-1.152-2.177-1.714-3.285a8.56,8.56,0,0,0-.03,1.093,10.551,10.551,0,0,1-.211,2.156c-.029.168-.038.354-.223.448h-.162a.384.384,0,0,1-.076-.341,17.083,17.083,0,0,0,.2-3.4.867.867,0,0,1,.02-.158.471.471,0,0,1,.16-.255c.144-.131.087-.247-.023-.361a5.913,5.913,0,0,1-.639-1.857,1.232,1.232,0,0,0-1.047-1.117c-.257-.047-.313-.217-.318-.437a10.012,10.012,0,0,1,.128-1.481.706.706,0,0,0-.257-.747.992.992,0,0,1-.324-.453,2.015,2.015,0,0,0-.164-.3,10.481,10.481,0,0,1,1.317-4.932c.24-.166.3-.136.444.212a1.33,1.33,0,0,1-.19.526,11.685,11.685,0,0,0-.927,2.789,2.705,2.705,0,0,0,.009,1.122.992.992,0,0,0,.975.81c.39.019.781-.006,1.171.01.657.027.879.4.479.922-1.131,1.467-.827,2.977-.211,4.509.494,1.227,1.223,2.335,1.807,3.517a4.94,4.94,0,0,1,.233.5,22.156,22.156,0,0,0,.09-3.6c-.067-.98,0-1.964-.128-2.94a2.852,2.852,0,0,1,.023-.965c.085-.162.17-.323.4-.294" transform="translate(-165.601 -309.403)" fill="#494c4a"/>
      <path id="Path_8401" data-name="Path 8401" d="M189.034,429.383h-1.05a.749.749,0,0,1-.238-.41,11.312,11.312,0,0,1-.557-3.238c0-.655-.091-1.306-.052-1.961.031-.52.2-.838.545-.935a1.1,1.1,0,0,1,1.161.46,2.639,2.639,0,0,1,.382,1.34,1.206,1.206,0,0,0,.157.652.558.558,0,0,1,.08.309,13.2,13.2,0,0,1-.229,3.4.653.653,0,0,1-.2.383" transform="translate(-163.82 -366.137)" fill="#fdfdfd"/>
      <path id="Path_8402" data-name="Path 8402" d="M235.972,386.869q.489-2.69.978-5.379c.179-.989.348-1.979.529-2.968a.849.849,0,0,0-.139-.648c-.445-.685-.886-1.373-1.329-2.06-.085-.2.041-.355.128-.519a14.79,14.79,0,0,1,1.584-2c.094-.04.152,0,.2.082a13.42,13.42,0,0,1-1.277,1.547.4.4,0,0,0-.055.593c.521.776,1.014,1.571,1.52,2.357a.412.412,0,0,1,.1.329c-.226,1.194-.484,2.383-.65,3.586-.224,1.624-.655,3.209-.853,4.836a2.256,2.256,0,0,0,0,.242Z" transform="translate(-205.751 -323.623)" fill="#800302"/>
      <path id="Path_8403" data-name="Path 8403" d="M267.728,385.209c-.388.723-.774,1.447-1.165,2.167a.756.756,0,0,0-.051.512c.27,1.546.571,3.086.815,4.636.2,1.258.5,2.5.616,3.77H267.3c-.132-.734-.246-1.473-.358-2.21q-.193-1.267-.44-2.522c-.192-.982-.352-1.971-.541-2.953a2.387,2.387,0,0,1,.391-2.113,7.484,7.484,0,0,0,.476-1.037c.065-.117.089-.28.185-.353.329-.25.27-.536.13-.845a1.006,1.006,0,0,1,.588.949" transform="translate(-231.422 -333.048)" fill="#800302"/>
      <path id="Path_8404" data-name="Path 8404" d="M182.791,403.15a9.645,9.645,0,0,0,.265-3.76,8.865,8.865,0,0,0-.38-1.972,1.06,1.06,0,0,0-.562-.655c-.626-.27-1.075-.006-1.124.669a3.161,3.161,0,0,0,0,.4,18.313,18.313,0,0,0,.752,5.314H181.5a.814.814,0,0,1-.206-.387,15.074,15.074,0,0,1-.557-3.01c-.009-.132.046-.359-.151-.348-.143.008-.105.225-.088.351.083.6.115,1.206.243,1.8a10.755,10.755,0,0,0,.279,1.136c.05.151.118.308,0,.46h-.242a23.846,23.846,0,0,1-.508-2.477,5.026,5.026,0,0,0-.114-.917,7,7,0,0,1-.294-2.179,2.223,2.223,0,0,1,.88-2.011c.159-.105.108-.262.118-.4a24.833,24.833,0,0,1,.325-2.918c.084.052.195.07.232.182-.017.965-.207,1.918-.215,2.884a.606.606,0,0,1-.252.487,2.25,2.25,0,0,0-.78,1.905c-.007.3.084.585.079.884,0,.147.039.271.227.258s.277-.111.257-.289a7.232,7.232,0,0,1-.067-1.005,1.092,1.092,0,0,1,.738-1.167,1.294,1.294,0,0,1,1.418.607,2.805,2.805,0,0,1,.35,1.148c.08.628.116.645.745.49.26.251.117.384-.142.482-.4.047-.394.326-.358.622a10.573,10.573,0,0,1-.154,2.824,1.036,1.036,0,0,1-.223.591Z" transform="translate(-157.577 -339.904)" fill="#3c5151"/>
      <path id="Path_8405" data-name="Path 8405" d="M206.874,444.779a11.126,11.126,0,0,0,.32-3.307c0-.236,0-.471,0-.733.064.028.113.033.126.057.634,1.255,1.345,2.469,1.921,3.753a1.292,1.292,0,0,1,.056.229Z" transform="translate(-180.772 -381.533)" fill="#fdfdfd"/>
      <path id="Path_8406" data-name="Path 8406" d="M202.309,444.357a16,16,0,0,0,.284-2.3c.018-.469-.014-.934-.024-1.4-.01-.45.024-.474.474-.34a17.88,17.88,0,0,1-.25,4.038Z" transform="translate(-176.853 -381.111)" fill="#cacaca"/>
      <path id="Path_8407" data-name="Path 8407" d="M184.047,445.266a18.026,18.026,0,0,1-.637-3.4c-.009-.107-.011-.215-.02-.322-.012-.14.021-.233.189-.239.153,0,.271.018.279.2a17.427,17.427,0,0,0,.674,3.757Z" transform="translate(-160.611 -382.02)" fill="#cbcbcb"/>
      <path id="Path_8408" data-name="Path 8408" d="M118.983,48.8a23.707,23.707,0,0,1-1.289-9,10.275,10.275,0,0,1,4.015-7.606,22.967,22.967,0,0,1,11.645-4.962,20.745,20.745,0,0,1,9.107.566,12.844,12.844,0,0,1,5.958,3.62.56.56,0,0,0,.594.193,8.066,8.066,0,0,1,4.028.191,6.584,6.584,0,0,1,3.977,3.769,14.664,14.664,0,0,1,1.1,6.941,23.187,23.187,0,0,1-1.589,7.252,2.325,2.325,0,0,1-.159.665c-.256.461-.469.945-.735,1.4a6.627,6.627,0,0,1-.606,1.082c-.091.131-.157.333-.391.219a1.569,1.569,0,0,1-.147-.784c0-.888.02-1.776,0-2.664a10.162,10.162,0,0,0-1.925-5.8,8.851,8.851,0,0,0-2.218-2.04c-.72-.5-1.428-1.01-2.1-1.574a8.848,8.848,0,0,1-2.337-3.3c-.216-.489-.215-.487-.755-.395a19,19,0,0,0-4.551,1.492c-1.867.836-3.662,1.82-5.5,2.706a32.817,32.817,0,0,1-5.082,2.051,11.481,11.481,0,0,1-6.909.125c-.288-.094-.414.045-.535.273a11.066,11.066,0,0,0-1.037,3.045,17.907,17.907,0,0,0-.339,4.01c.02.715-.091,1.421-.092,2.134a.567.567,0,0,1-.139.411c-.3.09-.4-.16-.518-.327a6.859,6.859,0,0,1-.8-1.6c-.136-.422-.29-.838-.417-1.263a7.849,7.849,0,0,0-.243-.837" transform="translate(-104.187 -26.341)" fill="#7e5225"/>
      <path id="Path_8409" data-name="Path 8409" d="M108.415,183.251c.192.392.378.787.576,1.176a1.785,1.785,0,0,0,.622.762.2.2,0,0,1,.081.135,5.748,5.748,0,0,1-.29,2.854,4.443,4.443,0,0,0-.444,1.166,1,1,0,0,0,.243,1.048c.1-.571.146-1.12.217-1.666a1.78,1.78,0,0,1,.015-.2c.024-.1,0-.253.146-.246s.12.157.134.258a2.925,2.925,0,0,1,.01.4c0,1.763.017,3.526,0,5.289a9.158,9.158,0,0,0,1.651,5.191,17.284,17.284,0,0,0,5.1,4.873,22.634,22.634,0,0,0,6.752,3.009,11.493,11.493,0,0,0,5.273.15,22.643,22.643,0,0,0,3.688-1.015,20.559,20.559,0,0,0,7.962-5.219,11.348,11.348,0,0,0,3.095-6.44,4.76,4.76,0,0,0,.024-.564c0-1.4,0-2.8,0-4.2,0-.161-.056-.421.154-.434.168-.01.139.254.176.4a7.984,7.984,0,0,0,.161.925,1.828,1.828,0,0,0,0-.976,1.551,1.551,0,0,0-.105-.347c-.639-1.234-.318-2.561-.375-3.851a.276.276,0,0,1,.09-.218,3.578,3.578,0,0,0,.721-1.075c.056-.1.076-.226.177-.3a2.425,2.425,0,0,1,1.22-.358,1.392,1.392,0,0,1,1.4,1.108,3.187,3.187,0,0,1,.059,1c-.007.119-.019.27-.171.281s-.179-.142-.213-.254a3.936,3.936,0,0,0-.26-.72.96.96,0,0,0-1.656-.221,3.039,3.039,0,0,0-.667,3.072,12.234,12.234,0,0,0,.5,1.4,1.962,1.962,0,0,1-.43,2.4.433.433,0,0,0-.148.4,16.672,16.672,0,0,1,.15,2.413c0,.3.077.335.332.158a3.129,3.129,0,0,0,1.12-1.5c.575-1.494,1.117-3,1.657-4.508a6.523,6.523,0,0,0,.376-3.57,3.022,3.022,0,0,0-.994-1.845,1.859,1.859,0,0,0-1.14-.457c-.159,0-.331,0-.412-.187a1.614,1.614,0,0,1,.232-.647,3.737,3.737,0,0,1,1.65.566,4.044,4.044,0,0,1,1.512,3.077,9.371,9.371,0,0,1-.786,4.078c-.435,1.155-.831,2.325-1.264,3.481a4.338,4.338,0,0,1-1.366,2.05,2.067,2.067,0,0,1-.892.443c-.238.039-.3.166-.337.365a12.205,12.205,0,0,1-4.325,6.849,23.948,23.948,0,0,1-2.785,2.055c-.117.076-.284.114-.294.3-.2.006-.392.012-.473.242a1.5,1.5,0,0,0-1,.571c-.233-.025-.46-.042-.465.294a5.107,5.107,0,0,0-1.343.541,3.783,3.783,0,0,0-.7.251,22.855,22.855,0,0,1-4.45,1.174.668.668,0,0,1-.474-.059,19.587,19.587,0,0,1-2.386.052l-.159-.043a.66.66,0,0,1-.463.046,22.017,22.017,0,0,1-3.108-.8c-.418-.146-.816-.341-1.241-.467a5.37,5.37,0,0,0-.793-.324c-.336-.241-.748-.338-1.082-.583-.1-.132-.186-.3-.4-.179a1.546,1.546,0,0,0-.93-.558.433.433,0,0,0-.475-.277c-.08-.268-.35-.322-.54-.451a18.162,18.162,0,0,1-5.814-5.99,7.736,7.736,0,0,1-1.087-3.341c-.01-.158.015-.334-.2-.384a3.253,3.253,0,0,1-2.364-2.412c-.639-1.9-1.274-3.8-1.725-5.747a5.555,5.555,0,0,1,.421-3.889,2.976,2.976,0,0,1,2.284-1.727c.123-.018.285.023.312-.174a1.206,1.206,0,0,1,.32.807.354.354,0,0,1-.256.1,2.436,2.436,0,0,0-2.229,1.914,5.578,5.578,0,0,0-.074,2.949c.285,1.359.794,2.652,1.176,3.983a14.047,14.047,0,0,0,.734,2.09,2.385,2.385,0,0,0,1.037,1.146c.335.178.427.122.476-.239.089-.653.144-1.309.228-1.962a.822.822,0,0,0-.374-.894,1.52,1.52,0,0,1-.616-1.673,9.232,9.232,0,0,1,.592-1.671,3.612,3.612,0,0,0,.114-2.9,1.876,1.876,0,0,0-.7-.865.944.944,0,0,0-1.416.332,4.568,4.568,0,0,0-.345.86c-.033.094-.048.232-.2.211-.1-.015-.14-.112-.169-.206a1.785,1.785,0,0,1,1.778-2.222.848.848,0,0,1,.659.337" transform="translate(-92.88 -158.692)" fill="#cf9153"/>
      <path id="Path_8410" data-name="Path 8410" d="M46.442,267.717a5.718,5.718,0,0,1-.843,1.077c-.313.35-.632.7-.944,1.049a1.581,1.581,0,0,0-.426,1.167,5.052,5.052,0,0,1-.779,3,.656.656,0,0,0,.138.871.634.634,0,0,0-.018.537,2.58,2.58,0,0,1-.191,1.813c-.212-.187-.2-.461-.258-.7-.108-.431-.153-.875-.253-1.308-.047-.205-.112-.335-.348-.192-.078.048-.192.1-.26.011-.1-.127.02-.227.094-.311a4.658,4.658,0,0,0,1.053-2.152,6.611,6.611,0,0,0,.163-1.641,1.916,1.916,0,0,1,.46-1.338c.524-.65,1.1-1.25,1.646-1.884a.745.745,0,0,0-.641-1.291,1.7,1.7,0,0,0-1.548,1.049,6.649,6.649,0,0,1-.389.753.646.646,0,0,1-.674.347.6.6,0,0,1-.48-.537c-.3-1.588-.927-3.1-1.145-4.7a2.667,2.667,0,0,0-.243-.81.9.9,0,0,0-1.036-.577.811.811,0,0,0-.652.968c.065.763.267,1.509.345,2.272.048.455.167.9.212,1.355.026.262.154.343.4.324a2.457,2.457,0,0,1,.92.082c.1.031.229.06.208.2-.017.115-.128.121-.225.123a7,7,0,0,0-3.769,1.271,6.541,6.541,0,0,0-.7.611c-.094.082-.21.24-.334.122s.032-.241.1-.353a.771.771,0,0,1,.048-.066c.384-.522.387-.523-.018-1.056s-.838-1.052-1.217-1.609a.869.869,0,0,0-1.153-.372,1.014,1.014,0,0,0-.457,1.285,9.024,9.024,0,0,0,1.323,1.923,4.924,4.924,0,0,0,.334.4,3.55,3.55,0,0,1,.938,2.036,5.126,5.126,0,0,0,2.063,3.485,4.941,4.941,0,0,0,1.257.534c.124.047.288.044.328.2s-.129.179-.22.242c-.158.109-.116.256-.095.4.153,1.039.363,2.067.6,3.091.041.18.119.366-.023.54-.314.132-.491.031-.586-.3a13.159,13.159,0,0,0-.457-1.766,19.14,19.14,0,0,0-.252-1.951c-.014-.141-.094-.2-.223-.246a4.655,4.655,0,0,1-2.838-3.271,4.6,4.6,0,0,1-.283-1.293c-.029-.644-.52-1-.867-1.452a15.273,15.273,0,0,1-1.482-2.05,1.712,1.712,0,0,1,.117-1.992,1.571,1.571,0,0,1,1.942-.371,1.466,1.466,0,0,1,.637.573,2.987,2.987,0,0,0,.605.822,3.634,3.634,0,0,0-.448-.97,6.815,6.815,0,0,1-.7-2.29,1.589,1.589,0,0,1,2.052-1.827,2.136,2.136,0,0,1,1.208,1.369,1.693,1.693,0,0,1,.483-1.26,1.572,1.572,0,0,1,2.449.406,5.029,5.029,0,0,1,.421,1.508c.255,1.4.734,2.744,1.057,4.18a1.708,1.708,0,0,0,.364-.627,2.282,2.282,0,0,1,2.811-1.264,1.257,1.257,0,0,1,.7,1.839" transform="translate(-31.064 -227.459)" fill="#ce9254"/>
      <path id="Path_8411" data-name="Path 8411" d="M358.693,444.527l-.092-.094a2.314,2.314,0,0,1,.909-.511,2.559,2.559,0,0,1-.817.6" transform="translate(-311.021 -384.265)" fill="#a7a7a7"/>
      <path id="Path_8412" data-name="Path 8412" d="M266.565,365l.529-.059c.3-.049.468.155.632.352a12.967,12.967,0,0,1,2.014,3,.343.343,0,0,0,.181.214,6.2,6.2,0,0,0,.7-1.369,9.479,9.479,0,0,0,.72-2.918.745.745,0,0,1,.171-.438c.214-.058.387-.27.643-.171.119.085.1.208.1.329a10.833,10.833,0,0,1-1.793,5.333c-.1.153-.18.338-.385.393-.147.12-.09.541-.469.318a6.574,6.574,0,0,0-1.282-2.522,2.253,2.253,0,0,0-.588-.949,7.756,7.756,0,0,0-.945-1.139.6.6,0,0,1-.221-.369" transform="translate(-232.013 -315.299)" fill="#114e1a"/>
      <path id="Path_8413" data-name="Path 8413" d="M73.833,365.342c2.455.848,5.564-1.368,5.8-4.159a16.479,16.479,0,0,1,2.74,5.889,1.9,1.9,0,0,0-.068-.85c-.048-.278-.115-.553-.189-.825a8.447,8.447,0,0,0-.3-.963.312.312,0,0,1,.171-.474c2.292-1.188,4.561-2.423,6.912-3.495.066-.03.129-.108.241-.035-.2,1.138-.412,2.285-.6,3.435q-.486,2.9-.949,5.811a.43.43,0,0,1-.246.375,29.139,29.139,0,0,1-5.569,2.231,5.326,5.326,0,0,1-4.6-.626,7.343,7.343,0,0,1-2.451-3.336,16.008,16.008,0,0,1-.893-2.978" transform="translate(-66.563 -312.565)" fill="#fefefe"/>
      <path id="Path_8414" data-name="Path 8414" d="M43.029,283.174c-.177-.906-.356-1.812-.528-2.719a8.015,8.015,0,0,0-.14-.83c-.113-.371-.071-.621.5-.679-.339-.11-.546-.181-.756-.244a4.456,4.456,0,0,1-2.811-2.94,6.373,6.373,0,0,1-.4-1.837c-.041-.463-.424-.735-.684-1.066a26.133,26.133,0,0,1-1.6-2.119,1.169,1.169,0,0,1,.014-1.552.893.893,0,0,1,1.436-.03c.635.759,1.207,1.572,1.811,2.358.1.135.012.181-.074.253a2.228,2.228,0,0,0-.536.7,7.242,7.242,0,0,1,4.989-2.112,2.13,2.13,0,0,0-1.256-.145c-.29.053-.327-.089-.357-.277-.118-.727-.227-1.455-.338-2.183-.085-.555-.2-1.108-.242-1.666a.9.9,0,0,1,.81-1.055,1.053,1.053,0,0,1,1.107.691,10.808,10.808,0,0,1,.384,1.637c.276,1.131.584,2.254.876,3.38.05.194.087.392.128.588a.458.458,0,0,0,.365.385.486.486,0,0,0,.5-.2,2.948,2.948,0,0,0,.423-.776,1.818,1.818,0,0,1,1.966-1.2.763.763,0,0,1,.666.454.862.862,0,0,1-.112.876c-.6.741-1.3,1.4-1.869,2.162a1.492,1.492,0,0,0-.319.969,6.7,6.7,0,0,1-.476,2.792,3.943,3.943,0,0,1-.96,1.407.174.174,0,0,0,.222-.022c.384-.234.392-.238.493.227.147.68.28,1.363.419,2.045a4.628,4.628,0,0,1-3.211,2.69.911.911,0,0,1-.437.034" transform="translate(-34.363 -230.683)" fill="#feca98"/>
      <path id="Path_8415" data-name="Path 8415" d="M213.589,364.023l.53.063a7.769,7.769,0,0,1-1.04,1.272,4.576,4.576,0,0,0-.707,1.207c-.282.092-.312.381-.429.588a5.466,5.466,0,0,0-.74,1.745l-.335.247c-.254-.049-.286-.3-.4-.463a11.292,11.292,0,0,1-2.02-5.763c-.012-.144-.032-.3.109-.4a.978.978,0,0,1,.7.267c.142.106.107.264.116.407a10.152,10.152,0,0,0,1.306,4.232c.031.057.063.12.144.139.13-.044.144-.179.192-.281a14.278,14.278,0,0,1,2.1-3.038.483.483,0,0,1,.487-.216" transform="translate(-182.112 -314.374)" fill="#134d19"/>
      <path id="Path_8416" data-name="Path 8416" d="M290.1,366.1a10.9,10.9,0,0,0,2.083-6.055,4.274,4.274,0,0,1,1.219-.611c.03-.015.1.063.158.1a11.685,11.685,0,0,1,1.1,3.19,2.717,2.717,0,0,1-.04,1.2,1.028,1.028,0,0,1-1,.79c-.336.012-.673-.016-1.009-.008-.274.006-.616-.083-.769.213s.1.531.272.749a3.225,3.225,0,0,1,.607,2.517,9.107,9.107,0,0,1-.908,2.66c-.517,1.079-1.16,2.094-1.609,3.207a3.186,3.186,0,0,1-.208.46,60.87,60.87,0,0,1,.1-8.41" transform="translate(-252.048 -311.739)" fill="#fefefe"/>
      <path id="Path_8417" data-name="Path 8417" d="M316.287,405.459a1.673,1.673,0,0,1-1.154,1.581,1.7,1.7,0,0,1-1.881-.553.787.787,0,0,1-.19-.592,4.062,4.062,0,0,0,0-.6,1.4,1.4,0,0,1,1.338-1.559,1.7,1.7,0,0,1,1.885,1.726" transform="translate(-271.925 -349.756)" fill="#cccbcc"/>
      <path id="Path_8418" data-name="Path 8418" d="M307.995,400.508a4.471,4.471,0,0,0-.581-1.029c-.051-.062-.119-.124-.079-.21s.141-.053.215-.055a5.156,5.156,0,0,0,1.521-.068c.068-.022.159-.013.143.075-.031.169.048.386-.206.471a2.04,2.04,0,0,0-1.011.816" transform="translate(-267.001 -345.818)" fill="#f8f8f8"/>
      <path id="Path_8419" data-name="Path 8419" d="M322.829,390.368c0,.47-.012.941.009,1.411.015.345-.206.263-.4.266s-.389.014-.342-.286c.024-.158,0-.328.139-.446a1.767,1.767,0,0,0,.505-.943c.028-.037.057-.038.087,0" transform="translate(-279.679 -338.269)" fill="#9bcbca"/>
      <path id="Path_8420" data-name="Path 8420" d="M321.281,366.053l-.087,0a8.478,8.478,0,0,0-.907-4.038,6.343,6.343,0,0,1,.994,4.035" transform="translate(-278.131 -313.955)" fill="#9ab6b6"/>
      <path id="Path_8421" data-name="Path 8421" d="M194.937,359.222a10.941,10.941,0,0,0,1.885,5.95c.15.223.287.454.43.681.085,2.081.209,4.162.145,6.247-.017.556,0,1.113-.067,1.674-.84-1.83-2.092-3.433-2.635-5.378a3.621,3.621,0,0,1,.56-3.507c.143-.173.3-.383.188-.622s-.385-.21-.608-.214c-.322-.007-.645.016-.968.015a1.149,1.149,0,0,1-1.285-1.223,5.506,5.506,0,0,1,.34-2.016,16.391,16.391,0,0,1,.9-2.157,2.3,2.3,0,0,1,1.121.55" transform="translate(-168.497 -311.082)" fill="#fefefe"/>
      <path id="Path_8422" data-name="Path 8422" d="M185.172,399.733c-.066.384-.381.135-.569.212-.143.059-.227-.068-.237-.236a4.674,4.674,0,0,0-.174-1.112,1.287,1.287,0,0,0-1.021-1.022.892.892,0,0,0-1.137.873,4.707,4.707,0,0,0,.089,1.283c.08.426-.244.3-.448.357-.273.072-.279-.1-.285-.289a7,7,0,0,1-.005-1.726,1.747,1.747,0,0,1,.753-1.233c.2-.12.2-.294.208-.486a24.271,24.271,0,0,1,.246-2.605c.011-.079.005-.164.083-.217a.943.943,0,0,0,.425.569c.239.138.237.321.216.546-.053.561-.088,1.124-.138,1.686-.021.234.051.32.3.347a1.18,1.18,0,0,1,1,.961,7.584,7.584,0,0,0,.691,2.093" transform="translate(-158.84 -341.007)" fill="#9acacc"/>
      <path id="Path_8423" data-name="Path 8423" d="M196.989,402.122a2.208,2.208,0,0,0-.875-.468c-.169-.026-.144-.173-.136-.289.034-.509.068-1.017.117-1.525.011-.114-.007-.294.213-.258a7.956,7.956,0,0,0,1.326.008c.173,0,.283.033.14.221a3.97,3.97,0,0,0-.6,1.088,4.627,4.627,0,0,0-.189,1.223" transform="translate(-171.413 -346.197)" fill="#fbfcfc"/>
      <path id="Path_8424" data-name="Path 8424" d="M169.408,110.269c0,.754.027,1.508,0,2.261a3.351,3.351,0,0,0,.326,1.6,2.674,2.674,0,0,1,.257,1.252.576.576,0,0,1-.3.524l-.219-1.516-.06,0q0,.252,0,.5c0,1.292.011,2.584,0,3.876a9.843,9.843,0,0,1-1.4,4.895,16.142,16.142,0,0,1-4.93,5.118,22.263,22.263,0,0,1-5.184,2.643,20.6,20.6,0,0,1-4.484,1.057,13.653,13.653,0,0,1-6.407-1.036,20.91,20.91,0,0,1-3.87-1.872,19.3,19.3,0,0,1-5.059-4.313,10.92,10.92,0,0,1-2.3-4.765,5.822,5.822,0,0,1-.123-1.118c0-1.857,0-3.715,0-5.573a4.5,4.5,0,0,0-.038-.711l-.264,2.193c-.593-.239-.571-.609-.472-1.184a6.6,6.6,0,0,1,.59-1.49,5.225,5.225,0,0,0,.183-2.032c.006-.215,0-.431,0-.646a6.463,6.463,0,0,0,.133-1.723,25.007,25.007,0,0,1,.444-5.215,10.008,10.008,0,0,1,1.1-2.932c.091-.154.157-.251.372-.178a12.039,12.039,0,0,0,8.021-.387,64.353,64.353,0,0,0,7.473-3.433,28.584,28.584,0,0,1,5.715-2.3c.442-.11.9-.172,1.344-.264.165-.034.286-.02.35.164a10.032,10.032,0,0,0,4.338,5.039,8.663,8.663,0,0,1,3.405,3.836,10.993,10.993,0,0,1,.98,4.456,23.467,23.467,0,0,0,.078,3.266" transform="translate(-118.922 -83.44)" fill="#feca98"/>
      <path id="Path_8425" data-name="Path 8425" d="M170.2,60.259a8.713,8.713,0,0,1,2.79-2.084,24.107,24.107,0,0,1,3.283-1.513c1.133-.4,2.273-.791,3.429-1.12.738-.21,1.51-.3,2.27-.489a2.116,2.116,0,0,0-1.239-.224c-.285,0-.585.045-.879.042a14.9,14.9,0,0,0-3.678.557,19.213,19.213,0,0,0-3.764,1.337.306.306,0,0,1-.333-.021,16.8,16.8,0,0,1,7.193-3.161,14.675,14.675,0,0,1,10.768,2.9,17.354,17.354,0,0,0-7.434-.6,17.8,17.8,0,0,0-7.089,2.045,14.441,14.441,0,0,1,5.589.089c-.308.341-.721.294-1.056.388-.951.264-1.878.578-2.8.93a22.156,22.156,0,0,0-2.94,1.352,1.021,1.021,0,0,0-.261.18c-.151.161-.1.3.1.3a4.679,4.679,0,0,0,1.58-.163c1-.333,1.947-.788,2.948-1.106.22-.07.416-.181.632-.254a10.9,10.9,0,0,1,2.484-.533c-.07.259-.3.221-.465.256a10.04,10.04,0,0,0-2.818,1.2,18.565,18.565,0,0,1-3.987,2.025,5.236,5.236,0,0,1-2.42.093c-.079-.015-.156-.037-.236-.047-.152-.019-.348.052-.413-.157-.055-.178.124-.249.21-.361a8.057,8.057,0,0,1,2.2-1.847c.723-.451,1.522-.78,2.284-1.215a7.418,7.418,0,0,0-3.028.183,19.672,19.672,0,0,0-2.925,1.024" transform="translate(-149.291 -49.054)" fill="#95622e"/>
      <path id="Path_8426" data-name="Path 8426" d="M112.5,188.111a3.974,3.974,0,0,0-.6-.226,1.3,1.3,0,0,0-1.511.783,2.089,2.089,0,0,0-.151,1.5c.124-.327.218-.639.358-.929a1.1,1.1,0,0,1,1.944-.307,2.8,2.8,0,0,1,.712,2.107,6.522,6.522,0,0,1-.676,2.3,3.373,3.373,0,0,0-.326,1.239,1.375,1.375,0,0,0,.738,1.333.5.5,0,0,1,.312.543c-.09.852-.165,1.706-.251,2.558-.028.278-.2.278-.409.2a2.471,2.471,0,0,1-1.328-1.34,14.941,14.941,0,0,1-.747-2.16c-.383-1.339-.9-2.639-1.171-4.011a5.265,5.265,0,0,1,.294-3.383,2.354,2.354,0,0,1,2.395-1.493l.419,1.29" transform="translate(-96.967 -163.552)" fill="#feca98"/>
      <path id="Path_8427" data-name="Path 8427" d="M382.9,192.538a.586.586,0,0,0,.307.079,2.184,2.184,0,0,1,2.039,1.442,4.974,4.974,0,0,1,.212,3.543,52.482,52.482,0,0,1-2.166,6.008,2.828,2.828,0,0,1-1.059,1.187.315.315,0,0,1-.3.08c-.139-.05-.093-.179-.09-.278a13.982,13.982,0,0,0-.153-2.568c-.025-.154-.049-.333.112-.444.867-.6.77-1.422.507-2.268-.127-.409-.31-.8-.456-1.2a3.707,3.707,0,0,1,.014-2.6,1.963,1.963,0,0,1,1.009-1.145,1.029,1.029,0,0,1,1.468.617c.123.29.206.6.312.91a1.972,1.972,0,0,0-.325-1.881,1.625,1.625,0,0,0-1.845-.152c-.078.039-.18.282-.316.048l.727-1.377" transform="translate(-330.787 -168.465)" fill="#feca98"/>
      <path id="Path_8428" data-name="Path 8428" d="M341.824,77.588a4.1,4.1,0,0,1,2.676.47,4.336,4.336,0,0,1,1.387.87c.068.067.171.176.275.074.083-.082-.015-.177-.058-.251a6.059,6.059,0,0,0-1.542-1.775,11.011,11.011,0,0,0-2.494-1.526c-.443-.183-.9-.327-1.357-.483-.073-.025-.173,0-.19-.107s.078-.118.15-.151a3.978,3.978,0,0,1,3.455-.03,5.053,5.053,0,0,1,2.627,2.594c.067.148.278.237.153.507a6.225,6.225,0,0,0-1.437-1.568,3.236,3.236,0,0,0-1.878-.793c2.878,1.565,3.835,4.128,3.834,7.205-.749-1.6-1.347-3.317-3.119-4.177-.086.215.069.26.139.336a8.979,8.979,0,0,1,1.656,2.942,13.535,13.535,0,0,1,.581,2.445,4.667,4.667,0,0,1-.056,1.438.164.164,0,0,1-.092.117c-.079.019-.1-.052-.131-.117a7.932,7.932,0,0,0-2.516-3.153,11.176,11.176,0,0,1-2.607-2.471c-.007-.011-.022-.018-.027-.03-.077-.183-.345-.391-.18-.54.139-.126.264.189.409.289a13.673,13.673,0,0,0,3.076,1.847c.39.139.591,0,.538-.406a3.682,3.682,0,0,0-.779-1.6,6.223,6.223,0,0,0-2.3-1.764c-.068-.037-.155-.051-.193-.189" transform="translate(-295.499 -66.964)" fill="#94622d"/>
      <path id="Path_8429" data-name="Path 8429" d="M218.527,365.686c-.214.014-.326.177-.445.318a13.062,13.062,0,0,0-2.3,3.555,9.91,9.91,0,0,1-1.6-5.116,6.23,6.23,0,0,1,1.439.485,19.685,19.685,0,0,0,2.758.7.652.652,0,0,1,.143.06" transform="translate(-187.05 -316.036)" fill="#3b9e49"/>
      <path id="Path_8430" data-name="Path 8430" d="M274.72,364.977a12.681,12.681,0,0,1-.54,2.708,10.639,10.639,0,0,1-1.082,2.279c-.35-.6-.593-1.21-.966-1.746a20.7,20.7,0,0,0-1.481-1.9.554.554,0,0,0-.346-.181,25.722,25.722,0,0,0,4.416-1.163" transform="translate(-235.223 -316.495)" fill="#3b9e49"/>
      <path id="Path_8431" data-name="Path 8431" d="M54.278,266.719a1.178,1.178,0,0,1,1,.662,14.889,14.889,0,0,1,.827,2.219c.2.612.342,1.239.53,1.853.082.265.045.422-.23.536a3.615,3.615,0,0,0-.971.471c-.153.127-.25.052-.355-.092a8.263,8.263,0,0,1-.7-1.348,11.991,11.991,0,0,1-1.057-2.725c-.166-.8.1-1.352.771-1.532.064-.017.13-.031.186-.044" transform="translate(-48.914 -232.145)" fill="#feca98"/>
      <path id="Path_8432" data-name="Path 8432" d="M87.193,320.01a1.539,1.539,0,0,1,1.031-2.147,2.559,2.559,0,0,0-1.031,2.147" transform="translate(-77.924 -276.05)" fill="#cb945a"/>
      <path id="Path_8433" data-name="Path 8433" d="M315.59,406.351a1.352,1.352,0,1,1-1.383,1.32,1.348,1.348,0,0,1,1.383-1.32" transform="translate(-272.911 -352.012)" fill="#4d4d4d"/>
      <path id="Path_8434" data-name="Path 8434" d="M212.627,280.1a29.727,29.727,0,0,0,13.6.08,7.825,7.825,0,0,1-6.954,4.371,7.49,7.49,0,0,1-6.645-4.451" transform="translate(-185.71 -243.63)" fill="#2c1705"/>
      <path id="Path_8435" data-name="Path 8435" d="M281.785,141.007a4.174,4.174,0,0,1,2.463.983,1.627,1.627,0,0,1,.292.332.513.513,0,0,1,.039.669c-.2.241-.426.1-.619-.005-.389-.212-.755-.466-1.145-.675a2.079,2.079,0,0,0-2.541.269,3.477,3.477,0,0,1-.284.226c-.147.1-.3.2-.474.048a.412.412,0,0,1-.1-.514,2.244,2.244,0,0,1,1.233-1.1,2.3,2.3,0,0,1,1.139-.229" transform="translate(-243.003 -124.224)" fill="#2c1707"/>
      <path id="Path_8436" data-name="Path 8436" d="M204.135,140.531a2.82,2.82,0,0,1,2.119,1,1.212,1.212,0,0,1,.271.49.4.4,0,0,1-.158.463c-.169.127-.3.041-.436-.06s-.227-.189-.336-.289a2.043,2.043,0,0,0-2.387-.387c-.441.2-.855.452-1.285.672-.193.1-.4.2-.588-.01a.485.485,0,0,1,.038-.664,3.458,3.458,0,0,1,1.962-1.109,2.321,2.321,0,0,1,.8-.1" transform="translate(-175.918 -123.816)" fill="#2c1706"/>
      <path id="Path_8437" data-name="Path 8437" d="M291.75,195.282a2.379,2.379,0,0,1-.472,1.51.766.766,0,0,1-1.317-.029,2.719,2.719,0,0,1,.065-2.96.771.771,0,0,1,1.322.028,2.374,2.374,0,0,1,.4,1.451" transform="translate(-251.748 -169.242)" fill="#2d1706"/>
      <path id="Path_8438" data-name="Path 8438" d="M211.988,194.845a2.468,2.468,0,0,1,.408-1.452.787.787,0,0,1,1.414-.009,2.774,2.774,0,0,1-.031,2.832.8.8,0,0,1-1.464-.058,2.593,2.593,0,0,1-.326-1.313" transform="translate(-185.162 -168.816)" fill="#2d1805"/>
      <path id="Path_8439" data-name="Path 8439" d="M247.445,321.017a2.3,2.3,0,0,1-4.51-.271c.258-.04.372.182.526.31a3.06,3.06,0,0,0,1.624.728,2.619,2.619,0,0,0,1.949-.578c.118-.091.216-.254.411-.189" transform="translate(-211.728 -278.521)" fill="#ce9e73"/>
      <path id="Path_8440" data-name="Path 8440" d="M249.1,245.544a4.187,4.187,0,0,0,1.509-1.209,2.306,2.306,0,0,1-1.97,2.042,2.377,2.377,0,0,1-2.265-2.068,3.088,3.088,0,0,0,1.678,1.31c.348-.045.7-.031,1.049-.076" transform="translate(-214.682 -212.908)" fill="#663304"/>
      <path id="Path_8441" data-name="Path 8441" d="M246.567,318.221a2.936,2.936,0,0,1-4.3-.091c-.067-.063-.14-.12-.21-.18l-.142-.18c0-.039,0-.077,0-.116a4.182,4.182,0,0,0,5.137-.17c-.107.34-.355.5-.483.736" transform="translate(-210.85 -275.725)" fill="#653404"/>
      <path id="Path_8442" data-name="Path 8442" d="M256.415,247.719a1.07,1.07,0,0,1-1.049.076c0-.225-.225-.246-.337-.368-.2-.223-.183-.375.1-.474a1.926,1.926,0,0,1,1.257-.007c.3.1.327.257.1.5-.072.076-.278.123-.075.277" transform="translate(-221.994 -215.083)" fill="#f9d7b2"/>
      <path id="Path_8443" data-name="Path 8443" d="M251.64,318.062h.965c.1,0,.2.021.228.126s-.066.158-.146.206a2.446,2.446,0,0,1-1.939.1c-.095-.023-.3-.127-.257-.309.043-.163.215-.125.345-.126.268,0,.536,0,.8,0" transform="translate(-218.208 -276.218)" fill="#fbd8b8"/>
      <path id="Path_8444" data-name="Path 8444" d="M318.083,408.9a1.137,1.137,0,1,1-1.14-1.162,1.158,1.158,0,0,1,1.14,1.162" transform="translate(-274.288 -353.207)" fill="#b1b1b1"/>
      <path id="Path_8445" data-name="Path 8445" d="M226.231,284.766a28.194,28.194,0,0,0,2.9.37,30.858,30.858,0,0,0,6.6-.312c.424-.063.46-.031.328.366a1.168,1.168,0,0,1-.916.862A19.839,19.839,0,0,1,227.21,286c-.614-.124-.826-.625-.979-1.231" transform="translate(-197.389 -247.638)" fill="#fcfcfb"/>
      <path id="Path_8446" data-name="Path 8446" d="M242.758,299.7a8.15,8.15,0,0,1-2.825-.555c-.258-.1-.223-.195-.076-.362a2.238,2.238,0,0,1,2.372-.529.8.8,0,0,0,.608.013,2.434,2.434,0,0,1,2.412.474c.308.257.294.33-.061.479a6.1,6.1,0,0,1-2.429.48" transform="translate(-208.988 -259.098)" fill="#cf6c6b"/>
      <path id="Path_8447" data-name="Path 8447" d="M296.456,196.161c-.006.447-.257.852-.527.849s-.5-.412-.49-.868c.011-.435.244-.817.5-.827.279-.011.519.385.513.846" transform="translate(-256.8 -170.848)" fill="#f6f6f2"/>
      <path id="Path_8448" data-name="Path 8448" d="M218.955,196.075c0,.483-.252.882-.54.869s-.517-.458-.484-.912.257-.8.524-.8c.284,0,.5.37.5.848" transform="translate(-190.262 -170.773)" fill="#faf9f7"/>
    </g>
  </g>
</svg>
