<svg xmlns="http://www.w3.org/2000/svg" width="419.945" height="387.951" viewBox="0 0 419.945 387.951">
  <g id="SVGRepo_iconCarrier" transform="translate(0.002 -15.99)">
    <g id="Group_6" data-name="Group 6">
      <g id="Group_5" data-name="Group 5">
        <g id="Group_4" data-name="Group 4">
          <path id="Path_20" data-name="Path 20" d="M282.895,352.367a18.641,18.641,0,0,1-5.579-5.25,18.97,18.97,0,0,1-1.771-3.125H28.282V100.276H363.906V259.414a18.712,18.712,0,0,1,15.7,11.8,18.628,18.628,0,0,1,12.58-1.92V39.561a23.594,23.594,0,0,0-23.566-23.569H23.568A23.6,23.6,0,0,0,0,39.561V348.707a23.6,23.6,0,0,0,23.568,23.568H280.747a18.659,18.659,0,0,1,2.148-19.908Zm55.13-296.8a8.7,8.7,0,0,1,8.7-8.7h8.7a8.7,8.7,0,0,1,8.7,8.7v9.863a8.7,8.7,0,0,1-8.7,8.7h-8.7a8.7,8.7,0,0,1-8.7-8.7Zm-40.465,0a8.7,8.7,0,0,1,8.7-8.7h8.7a8.7,8.7,0,0,1,8.7,8.7v9.863a8.7,8.7,0,0,1-8.7,8.7h-8.7a8.7,8.7,0,0,1-8.7-8.7Zm-40.466,0a8.7,8.7,0,0,1,8.7-8.7h8.7a8.7,8.7,0,0,1,8.7,8.7v9.863a8.7,8.7,0,0,1-8.7,8.7h-8.7a8.7,8.7,0,0,1-8.7-8.7Z" fill="#ef0" stroke="#ef0" stroke-width="0.004"/>
          <path id="Path_21" data-name="Path 21" d="M419.875,335.77l-2.615-14.83a3.673,3.673,0,0,0-4.255-2.979l-13.188,2.324a49.468,49.468,0,0,0-6.005-10.38l8.614-10.268a3.668,3.668,0,0,0-.453-5.174l-11.534-9.68a3.675,3.675,0,0,0-5.176.453l-8.606,10.26a49.3,49.3,0,0,0-11.271-4.1V278a3.675,3.675,0,0,0-3.673-3.674h-15.06A3.675,3.675,0,0,0,342.98,278v13.392a49.252,49.252,0,0,0-11.271,4.1L323.1,285.237a3.674,3.674,0,0,0-5.175-.453l-11.535,9.679a3.674,3.674,0,0,0-.453,5.177l8.615,10.266a49.643,49.643,0,0,0-6.005,10.38l-13.188-2.325a3.677,3.677,0,0,0-4.255,2.979l-2.614,14.83a3.672,3.672,0,0,0,2.977,4.255l13.2,2.326a49.466,49.466,0,0,0,2.073,11.812l-11.6,6.7a3.67,3.67,0,0,0-1.345,5.016l7.529,13.041a3.672,3.672,0,0,0,5.016,1.344l11.609-6.7a49.484,49.484,0,0,0,9.18,7.709l-4.584,12.593a3.672,3.672,0,0,0,2.195,4.707l14.148,5.149a3.668,3.668,0,0,0,4.708-2.194l4.583-12.593a49.943,49.943,0,0,0,11.988,0l4.584,12.593a3.671,3.671,0,0,0,3.451,2.418,3.626,3.626,0,0,0,1.256-.224l14.15-5.149a3.673,3.673,0,0,0,2.193-4.707l-4.584-12.591a49.756,49.756,0,0,0,9.18-7.709l11.609,6.7a3.683,3.683,0,0,0,1.836.492,3.745,3.745,0,0,0,.951-.125,3.672,3.672,0,0,0,2.229-1.711l7.529-13.043a3.67,3.67,0,0,0-1.345-5.016l-11.6-6.693a49.484,49.484,0,0,0,2.071-11.812l13.2-2.327a3.664,3.664,0,0,0,2.37-1.511A3.6,3.6,0,0,0,419.875,335.77Zm-65.691,23.566a20.2,20.2,0,1,1,20.2-20.2A20.2,20.2,0,0,1,354.184,359.336Z" fill="#ef0" stroke="#ef0" stroke-width="0.004"/>
          <g id="Group_3" data-name="Group 3">
            <path id="Path_22" data-name="Path 22" d="M164.7,235.373a12.3,12.3,0,0,0-7.1-11.119l-39.455-18.332L157.6,187.588a12.3,12.3,0,0,0,7.1-11.118v-.319a12.24,12.24,0,0,0-12.271-12.25,12.327,12.327,0,0,0-5.16,1.133L84.186,194.367a12.3,12.3,0,0,0-7.092,11.117v.877a12.319,12.319,0,0,0,7.093,11.118l63.084,29.336A12.263,12.263,0,0,0,164.7,235.694v-.321Z" fill="#ef0" stroke="#ef0" stroke-width="0.004"/>
            <path id="Path_23" data-name="Path 23" d="M226.932,134.012a12.3,12.3,0,0,0-9.9-5.03h-.314a12.224,12.224,0,0,0-11.679,8.516L163.478,266.27a12.264,12.264,0,0,0,11.682,15.991h.315a12.217,12.217,0,0,0,11.672-8.516L228.7,144.983A12.291,12.291,0,0,0,226.932,134.012Z" fill="#ef0" stroke="#ef0" stroke-width="0.004"/>
            <path id="Path_24" data-name="Path 24" d="M308,194.366l-63.079-29.333a12.262,12.262,0,0,0-17.428,11.118v.319a12.32,12.32,0,0,0,7.1,11.123l39.454,18.33L234.59,224.254a12.3,12.3,0,0,0-7.1,11.119v.321a12.267,12.267,0,0,0,17.433,11.118l63.082-29.336a12.31,12.31,0,0,0,7.088-11.114v-.877A12.313,12.313,0,0,0,308,194.366Z" fill="#ef0" stroke="#ef0" stroke-width="0.004"/>
          </g>
        </g>
      </g>
    </g>
  </g>
</svg>
