<svg id="SVGRepo_iconCarrier" xmlns="http://www.w3.org/2000/svg" width="463" height="463" viewBox="0 0 463 463">
  <g id="Group_2" data-name="Group 2">
    <path id="Path_16" data-name="Path 16" d="M175.5,0H39.5A39.545,39.545,0,0,0,0,39.5v136A39.545,39.545,0,0,0,39.5,215h136A39.545,39.545,0,0,0,215,175.5V39.5A39.545,39.545,0,0,0,175.5,0ZM200,175.5A24.528,24.528,0,0,1,175.5,200H39.5A24.528,24.528,0,0,1,15,175.5V39.5A24.528,24.528,0,0,1,39.5,15h136A24.528,24.528,0,0,1,200,39.5Z" fill="#ef0"/>
    <path id="Path_17" data-name="Path 17" d="M423.5,0h-136A39.545,39.545,0,0,0,248,39.5v136A39.545,39.545,0,0,0,287.5,215h136A39.545,39.545,0,0,0,463,175.5V39.5A39.545,39.545,0,0,0,423.5,0ZM448,175.5A24.528,24.528,0,0,1,423.5,200h-136A24.528,24.528,0,0,1,263,175.5V39.5A24.528,24.528,0,0,1,287.5,15h136A24.528,24.528,0,0,1,448,39.5Z" fill="#ef0"/>
    <path id="Path_18" data-name="Path 18" d="M175.5,248H39.5A39.545,39.545,0,0,0,0,287.5v136A39.545,39.545,0,0,0,39.5,463h136A39.545,39.545,0,0,0,215,423.5v-136A39.545,39.545,0,0,0,175.5,248ZM200,423.5A24.528,24.528,0,0,1,175.5,448H39.5A24.528,24.528,0,0,1,15,423.5v-136A24.528,24.528,0,0,1,39.5,263h136A24.528,24.528,0,0,1,200,287.5Z" fill="#ef0"/>
    <path id="Path_19" data-name="Path 19" d="M423.5,248h-136A39.545,39.545,0,0,0,248,287.5v136A39.545,39.545,0,0,0,287.5,463h136A39.545,39.545,0,0,0,463,423.5v-136A39.545,39.545,0,0,0,423.5,248ZM448,423.5A24.528,24.528,0,0,1,423.5,448h-136A24.528,24.528,0,0,1,263,423.5v-136A24.528,24.528,0,0,1,287.5,263h136A24.528,24.528,0,0,1,448,287.5Z" fill="#ef0"/>
  </g>
</svg>
