<svg id="Group_10321" data-name="Group 10321" xmlns="http://www.w3.org/2000/svg" width="58.526" height="21.636" viewBox="0 0 58.526 21.636">
  <path id="Path_173" data-name="Path 173" d="M-568.769,515.117c.188.089.341.167.5.235a3.338,3.338,0,0,1,1.934,2.825,22.094,22.094,0,0,1,.124,3.151,10.566,10.566,0,0,0,.06,1.629.853.853,0,0,0,.388.721c.2.1.08.308.088.466.009.182-.128.15-.228.149-1.525-.006-3.049-.021-4.574-.013-.289,0-.362-.141-.4-.424a25.219,25.219,0,0,1-.179-3.538,7.477,7.477,0,0,0-.076-1.059,1.763,1.763,0,0,0-1.3-1.624,12.378,12.378,0,0,0-2.7-.143c-.18-.008-.126.15-.127.253,0,.627,0,1.255,0,1.882,0,1.444-.014,2.888,0,4.332,0,.289-.078.35-.319.347q-2.224-.021-4.448-.006c-.236,0-.3-.069-.3-.336q.007-9.427-.006-18.854c0-.271.063-.329.3-.328,2.313.012,4.627,0,6.941.015a11.66,11.66,0,0,1,4.017.553,4.249,4.249,0,0,1,2.826,4.1,8.511,8.511,0,0,1-.265,3.046,3.675,3.675,0,0,1-2.092,2.523A1.158,1.158,0,0,0-568.769,515.117Zm-6.512-3.865c0,.544.007,1.088,0,1.631,0,.217.031.313.255.307.724-.021,1.449-.01,2.174-.019a2.652,2.652,0,0,0,1.044-.229,1.321,1.321,0,0,0,.828-.945c.253-1.144-.112-2.382-1.427-2.6a23.12,23.12,0,0,0-2.705-.068c-.188-.009-.165.122-.165.253Q-575.28,510.418-575.281,511.251Z" transform="translate(624.177 -503.725)" fill="#131a31"/>
  <path id="Path_174" data-name="Path 174" d="M-817.183,514.5c0-3.125,0-6.249-.006-9.374,0-.275.057-.348.306-.347q6.12.015,12.241,0c.256,0,.335.059.331.363-.019,1.29-.019,2.58-.009,3.87,0,.266-.06.334-.3.333-2.4-.012-4.8,0-7.193-.018-.265,0-.334.074-.325.369q.031,1.046,0,2.094c-.008.274.066.329.3.327,1.914-.01,3.828,0,5.742-.012.288,0,.343.091.339.393q-.024,1.917,0,3.835c0,.265-.056.333-.293.332-1.924-.012-3.849,0-5.773-.013-.247,0-.318.067-.312.349q.027,1.189,0,2.379c-.006.266.055.331.292.33,2.4-.011,4.8,0,7.193-.015.258,0,.335.066.331.365-.015,1.3-.012,2.6,0,3.906,0,.274-.077.331-.307.331q-6.12-.012-12.24,0c-.248,0-.315-.071-.314-.353.009-3.148.006-6.3.006-9.445Z" transform="translate(846.046 -503.505)" fill="#131a31"/>
  <path id="Path_175" data-name="Path 175" d="M-1064.509,504.508c.8.008,1.6.024,2.4.024q4.732,0,9.463,0c.256,0,.336.06.332.363-.017,1.195-.014,2.39,0,3.584a1.608,1.608,0,0,1-.318,1.028q-3.493,4.827-6.962,9.677c-.051.07-.1.144-.184.27h.349c2.261,0,4.521,0,6.781-.01.242,0,.316.062.313.344q-.018,1.952.006,3.9c0,.276-.061.355-.312.354q-3.8-.025-7.6-.022c-1.724,0-3.448.025-5.171.038-.213-.074-.572.082-.514-.415a8.06,8.06,0,0,0-.005-1.127v-.8q0-.24,0-.481v-.515c0-.305.024-.612.006-.915a1.05,1.05,0,0,1,.226-.731c.386-.523.746-1.071,1.117-1.608a6.011,6.011,0,0,0,.937-1.336,14.707,14.707,0,0,0,1.016-1.348c.764-1.064,1.519-2.137,2.278-3.206a3.645,3.645,0,0,0,.449-.611l1.357-1.867h-2.4l-3.556-.007-.351,0a4.238,4.238,0,0,0-.532-.007c-.2.021-.247-.056-.242-.273.012-.47,0-.941-.007-1.411s0-.912,0-1.368c0-.423.008-.845.01-1.268,0-.119-.014-.244.144-.243A5.046,5.046,0,0,0-1064.509,504.508Z" transform="translate(1079.078 -503.255)" fill="#131a31"/>
  <path id="Path_176" data-name="Path 176" d="M-1260.772,502.091q0,.255,0,.509c-1.239,0-2.478.007-3.717,0-.214,0-.3.043-.26.309a12.778,12.778,0,0,0,.486,2.275c.178.53.285.58.776.45a3.713,3.713,0,0,0,1.858-1.312c.323-.384.562-.839.859-1.246q0,.4,0,.791a10.143,10.143,0,0,1-1.457,1.7l1.462-.584c-.058.492.3.338.514.41a3.525,3.525,0,0,1-1.416.595,9.53,9.53,0,0,1-11.067-5.342c-2.62-5.315-.717-12.071,4.178-14.749a8.841,8.841,0,0,1,9.056.068,1.76,1.76,0,0,1,.158.111,5.113,5.113,0,0,1-.973.013,6.284,6.284,0,0,0-1.872-.669,7.5,7.5,0,0,1,1.718,2.161q0,.676,0,1.352c-.946.008-1.891.015-2.838.026-.1,0-.224-.051-.283.087a1.481,1.481,0,0,1-1.224.857.222.222,0,0,0-.212.242c-.026.724-.062,1.447-.091,2.17,0,.086-.021.239.1.206.234-.066.57.233.7-.246.041-.151.2-.135.332-.113.157.026.344.058.44-.1.272-.454.745-.69.992-1.163a.247.247,0,0,1,.287-.141c.743.065,1.486.112,2.229.177.23.02.365-.046.351-.328l.351,0c.03.145.081.217.24.171a3.3,3.3,0,0,1,1.068-.041c.32.014.417.2.3.533a3.266,3.266,0,0,0-.191.628.518.518,0,0,0,.51.649c.66-.044,1.325-.03,1.987-.011.268.008.308-.082.214-.335-.2-.527-.382-1.058-.572-1.588h.433a6.31,6.31,0,0,1,.607,1.844,3.577,3.577,0,0,1-.449.6c-.577,0-1.154.011-1.73-.013-.291-.012-.425.027-.393.42.045.544-.139.757-.611.855-.135.028-.281.094-.289.227a.376.376,0,0,1-.341.378c-.216.052-.242.184-.242.4,0,.583.009,1.169-.048,1.746-.035.358.014.528.359.489a5.93,5.93,0,0,1-.937,1.32,5.53,5.53,0,0,1,.056-.553c.046-.229-.03-.283-.224-.278q-.755.02-1.512.006c-.163,0-.236.068-.3.228a9.133,9.133,0,0,1-1.585,2.508c-.34.4-.242.463-.661.013-.038-.04-.074-.083-.11-.125a1.479,1.479,0,0,1-.243-1.754c.11-.224.192-.466.289-.7.045-.108.047-.177-.088-.175-.4.005-.8.006-1.2.009-.115,0-.159.045-.151.192q.09,1.73.241,3.455c.026.291.117.389.388.386C-1263.272,502.076-1262.022,502.088-1260.772,502.091Zm-4.8-6.8h.007c0-.666,0-1.332,0-2,0-.167-.018-.252-.2-.25-.977.009-1.955.006-2.933,0-.135,0-.207.03-.221.207-.06.781-.1,1.561-.1,2.345a.384.384,0,0,0,.14.328,1.288,1.288,0,0,0,.837.353c.21,0,.421-.006.631,0,.287.008.422.161.411.483a4.392,4.392,0,0,1-.063.52c-.027.17,0,.261.186.253.346-.015.694-.019,1.04,0,.214.009.268-.089.264-.31C-1265.578,496.577-1265.572,495.934-1265.572,495.292Zm-1,6.79v-.01c.326,0,.653-.02.977.006.267.022.317-.1.292-.36-.06-.649-.1-1.3-.15-1.951-.035-.5-.067-1-.09-1.5-.008-.181-.073-.235-.233-.23-.431.012-.862.017-1.293,0a.37.37,0,0,0-.384.27,4.833,4.833,0,0,1-.871,1.447.415.415,0,0,0-.12.425c.105.538.312,1.039.457,1.562a.39.39,0,0,0,.437.34C-1267.224,502.077-1266.9,502.082-1266.572,502.082Zm6.006-13.721a6.384,6.384,0,0,0-1.987-2.637,2.649,2.649,0,0,0-1.136-.48c-.292-.05-.444.073-.56.354a11.226,11.226,0,0,0-.557,2.5c-.047.285.054.329.28.327,1.229-.01,2.457,0,3.685-.006A.347.347,0,0,0-1260.566,488.361Zm-7.962,2.709a1.713,1.713,0,0,1,1.036-.224c.234.061.288.232.306.459s-.025.375-.236.46a5.488,5.488,0,0,1-1.129.3c-.195.033-.23.177-.227.353,0,.205.152.12.236.12.914.006,1.828,0,2.742.008.215,0,.293-.071.3-.316.023-.618.078-1.234.109-1.852.006-.116.084-.273-.036-.349s-.181.082-.271.133c-.16.091-.332.216-.5.094-.188-.136-.18-.376-.16-.6a4.718,4.718,0,0,1,.206-.685c-.519,0-1.012.013-1.506-.006-.209-.008-.306.08-.355.289a1.239,1.239,0,0,0-.031.449.627.627,0,0,1-.148.548A1.465,1.465,0,0,0-1268.528,491.07Zm-3.705,6.978c-.242,0-.484.009-.725,0-.189-.01-.217.086-.164.255.129.406.243.82.392,1.217a10.576,10.576,0,0,0,1.29,2.394.389.389,0,0,0,.478.146c.185-.048.093-.236.091-.355a18.824,18.824,0,0,0-.255-2.784c-.149-.871-.154-.87-.919-.87Zm-1-4.71a10.647,10.647,0,0,0-.09,3.977c.025.148.071.223.222.22q.614-.014,1.229,0c.155,0,.23-.055.179-.218a1.678,1.678,0,0,1,.143-1.112.853.853,0,0,0-.2-.953A4.816,4.816,0,0,1-1273.229,493.338Zm2.371-4.9c.834,0,1.6-.015,2.361.008a.523.523,0,0,0,.562-.36,7.653,7.653,0,0,1,1.433-2.156c.144-.146.292-.285.462-.451C-1267.269,485.485-1269.891,487.087-1270.859,488.435Zm6.419-3.156a.473.473,0,0,0-.349.03,5.078,5.078,0,0,0-2.773,2.887c-.1.2.02.229.175.228.662-.005,1.325-.01,1.987,0,.175,0,.241-.067.265-.247A12.041,12.041,0,0,1-1264.439,485.278Zm-.011,20.4a9.936,9.936,0,0,1-.7-2.8c-.029-.23-.107-.278-.3-.275-.629.01-1.258.012-1.887-.005-.273-.008-.243.115-.145.3a6.992,6.992,0,0,0,1.516,2.033A2.962,2.962,0,0,0-1264.45,505.674Zm-5.839-2.437a6.272,6.272,0,0,0,2,1.411c.729.271,1.453.563,2.18.846l.04-.094a7.463,7.463,0,0,1-1.9-2.617.287.287,0,0,0-.3-.187c-.452.009-.9.012-1.354,0-.192,0-.316.022-.322.284A.336.336,0,0,1-1270.289,503.237Zm.483-7.946c.386.005.4.006.4-.206a15.736,15.736,0,0,1,.114-1.813c.008-.065.033-.139-.022-.2-.154-.158-.7.017-.755.241-.131.523-.131.523-.575.273-.019-.011-.036-.023-.056-.033-.166-.08-.352-.174-.506-.036s-.086.347-.081.529a.456.456,0,0,0,.056.2C-1270.9,494.844-1270.508,495.342-1269.806,495.291Zm10.617.692c0-.246,0-.491,0-.737,0-.11.028-.237-.142-.245s-.17.123-.178.252c-.007.1-.014.21-.027.314a.511.511,0,0,1-.768.419c-.28-.167-.422-.1-.463.266a2.393,2.393,0,0,1-.3.984c-.124.207-.057.287.151.286.484,0,.968,0,1.451.008.148,0,.2-.053.211-.218C-1259.233,496.869-1259.17,496.429-1259.19,495.983Zm-9.866,6.08h.533c.173,0,.207-.067.142-.256-.145-.422-.266-.855-.391-1.285-.032-.109-.024-.266-.175-.22-.166.051-.381-.137-.5.134a2.87,2.87,0,0,0-.176.913C-1269.7,502.074-1269.7,502.074-1269.056,502.063Zm3.874-6.058c0,.217,0,.414,0,.612,0,.914,0,.914.807.914a3.366,3.366,0,0,1,.346,0c.223.023.223-.105.152-.271a5.8,5.8,0,0,0-.475-.944c-.061-.092-.117-.182-.243-.2C-1264.779,496.1-1264.962,496.051-1265.182,496.005Zm-3.669-5.353c-.276.027-.514.049-.753.074-.082.009-.164.009-.182.14a.488.488,0,0,0,.394.578c.259.029.453-.012.464-.369A3.038,3.038,0,0,1-1268.85,490.652Zm4.323,2.421c-.694-.054-.694-.054-.607.492Z" transform="translate(1273.912 -484.679)" fill="#51ad60"/>
</svg>
